<svg xmlns="http://www.w3.org/2000/svg" viewBox="0 0 345.3 100"><defs><style>.cls-1{isolation:isolate;}.cls-2{fill:#fff;}</style></defs><title>enter_vr</title><g id="Layer_2" data-name="Layer 2"><g id="Layer_1-2" data-name="Layer 1"><g id="_Group_" data-name="&lt;Group&gt;"><g class="cls-1"><path class="cls-2" d="M121.83,58.85v-20A1.84,1.84,0,0,1,123.69,37h11.08a1.88,1.88,0,0,1,1.86,1.86,1.91,1.91,0,0,1-1.86,1.9h-9.18V47h7.89a1.88,1.88,0,0,1,0,3.76h-7.89v6.23h9.18a1.88,1.88,0,0,1,0,3.76h-11c-.07,0-.07,0-.07,0l0,0A1.86,1.86,0,0,1,121.83,58.85Z"/><path class="cls-2" d="M145.64,58.85a1.85,1.85,0,1,1-3.69,0V39.13a1.83,1.83,0,0,1,.75-1.56,1.87,1.87,0,0,1,2.57.41l10.94,15.14v-14A1.84,1.84,0,0,1,158,37.34a1.87,1.87,0,0,1,1.86,1.83V58.85A1.88,1.88,0,0,1,158,60.71a1.84,1.84,0,0,1-1.39-.68.88.88,0,0,1-.17-.2l-10.84-15Z"/><path class="cls-2" d="M182.19,40.76h-5.39V58.85a1.84,1.84,0,0,1-1.86,1.86,1.86,1.86,0,0,1-1.86-1.86V40.76h-5.35a1.89,1.89,0,0,1-1.86-1.9A1.84,1.84,0,0,1,167.73,37h14.46a1.86,1.86,0,0,1,1.86,1.86A1.91,1.91,0,0,1,182.19,40.76Z"/><path class="cls-2" d="M189.64,58.85v-20A1.84,1.84,0,0,1,191.51,37h11.08a1.88,1.88,0,0,1,1.86,1.86,1.91,1.91,0,0,1-1.86,1.9h-9.18V47h7.89a1.88,1.88,0,0,1,0,3.76h-7.89v6.23h9.18a1.88,1.88,0,0,1,0,3.76h-11c-.07,0-.07,0-.07,0l0,0A1.86,1.86,0,0,1,189.64,58.85Z"/><path class="cls-2" d="M226.09,57.9a1.87,1.87,0,0,1-1.19,2.37,3,3,0,0,1-.75.1h0a2.46,2.46,0,0,1-1.32-.37,3.33,3.33,0,0,1-1.08-1.19,9.1,9.1,0,0,1-.71-4.07,2.85,2.85,0,0,0-.41-1.46,3.14,3.14,0,0,0-1-1,6.44,6.44,0,0,0-1.9-.81h-4v7.35a1.89,1.89,0,0,1-1.9,1.86,1.86,1.86,0,0,1-1.86-1.86v-20A1.84,1.84,0,0,1,211.8,37h6.06a7.24,7.24,0,0,1,4.61,12.84,5.24,5.24,0,0,1,1.19,1.25,6.41,6.41,0,0,1,1.12,3.66,8.57,8.57,0,0,0,.13,2A1.83,1.83,0,0,1,226.09,57.9Zm-4.74-13.62a3.49,3.49,0,0,0-3.49-3.52h-4.17v7h4.17A3.48,3.48,0,0,0,221.35,44.28Z"/><path class="cls-2" d="M249.46,60.37a1.41,1.41,0,0,0-.24-.17s0,0,0-.1a.91.91,0,0,1-.17-.2,0,0,0,0,1,0,0,1.18,1.18,0,0,0-.17-.27l-8.3-19.78a1.8,1.8,0,0,1,1-2.41,1.83,1.83,0,0,1,2.4,1l6.61,15.68,6.61-15.68a1.87,1.87,0,0,1,3.46,1.42l-8.37,19.78a1,1,0,0,1-.14.27s0,0,0,0-.13.13-.17.2a.28.28,0,0,1-.07.1c-.07.07-.14.1-.2.17l-.07,0a1.87,1.87,0,0,1-.27.17s0,0-.07,0a.81.81,0,0,0-.27.07h-.07a1.25,1.25,0,0,1-.34,0,1.14,1.14,0,0,1-.34,0h-.07a.81.81,0,0,0-.27-.07,0,0,0,0,0,0,0h0c-.07,0-.2-.14-.3-.2Z"/><path class="cls-2" d="M282.83,57.9a1.87,1.87,0,0,1-1.19,2.37,3,3,0,0,1-.75.1h0a2.46,2.46,0,0,1-1.32-.37,3.34,3.34,0,0,1-1.08-1.19,9.12,9.12,0,0,1-.71-4.07,2.87,2.87,0,0,0-.41-1.46,3.14,3.14,0,0,0-1-1,6.42,6.42,0,0,0-1.9-.81h-4v7.35a1.89,1.89,0,0,1-1.9,1.86,1.86,1.86,0,0,1-1.86-1.86v-20A1.84,1.84,0,0,1,268.53,37h6.06a7.24,7.24,0,0,1,4.61,12.84,5.25,5.25,0,0,1,1.19,1.25,6.42,6.42,0,0,1,1.12,3.66,8.61,8.61,0,0,0,.14,2A1.82,1.82,0,0,1,282.83,57.9Zm-4.74-13.62a3.49,3.49,0,0,0-3.49-3.52h-4.17v7h4.17A3.48,3.48,0,0,0,278.09,44.28Z"/></g></g><path id="_Compound_Path_" data-name="&lt;Compound Path&gt;" class="cls-2" d="M97.57,38.5a4.82,4.82,0,0,0-3.3-1.5H67.07a4.63,4.63,0,0,0-3.3,1.5,4.76,4.76,0,0,0-1.4,3.4v14a5,5,0,0,0,1.4,3.5,4.94,4.94,0,0,0,3.3,1.6h6.5a5.27,5.27,0,0,0,2.4-.8,4.51,4.51,0,0,0,1.7-1.9l1.8-3.4a1.15,1.15,0,0,1,1.1-.6h0a1.15,1.15,0,0,1,1.1.6l1.8,3.4a6.48,6.48,0,0,0,1.7,2,5.27,5.27,0,0,0,2.4.8h6.5a5.07,5.07,0,0,0,3.3-1.5,4.94,4.94,0,0,0,1.4-3.4V42.1A4.22,4.22,0,0,0,97.57,38.5ZM72.37,52.7a3.7,3.7,0,1,1,3.7-3.7A3.76,3.76,0,0,1,72.37,52.7Zm16.6,0a3.7,3.7,0,1,1,3.7-3.7A3.69,3.69,0,0,1,89,52.7Z"/><g id="_Group_2" data-name="&lt;Group&gt;"><g id="_Group_3" data-name="&lt;Group&gt;"><path id="_Compound_Path_2" data-name="&lt;Compound Path&gt;" class="cls-2" d="M340.5,3.1a1.58,1.58,0,0,1,1.6,1.6V95.3a1.58,1.58,0,0,1-1.6,1.6H4.7a1.58,1.58,0,0,1-1.6-1.6V4.7A1.58,1.58,0,0,1,4.7,3.1H340.5m0-3.1H4.7A4.69,4.69,0,0,0,0,4.7V95.3A4.69,4.69,0,0,0,4.7,100H340.6a4.69,4.69,0,0,0,4.7-4.7V4.7A4.85,4.85,0,0,0,340.5,0Z"/></g></g></g></g></svg>