<svg xmlns="http://www.w3.org/2000/svg" viewBox="0 0 289.14 33.66"><defs><style>.cls-1{fill:#fff;}</style></defs><title>head_phones_required</title><g id="Layer_2" data-name="Layer 2"><g id="WebVR_Button" data-name="WebVR Button"><g id="_Group_" data-name="&lt;Group&gt;"><path id="_Path_" data-name="&lt;Path&gt;" class="cls-1" d="M16.83,0A16.85,16.85,0,0,0,0,16.83v8.75a1.35,1.35,0,1,0,2.69,0V16.83a14.14,14.14,0,0,1,28.28,0v8.75a1.35,1.35,0,1,0,2.69,0V16.83A16.85,16.85,0,0,0,16.83,0Z"/><path id="_Path_2" data-name="&lt;Path&gt;" class="cls-1" d="M7.07,22.55H5a.89.89,0,0,0-1,1v9.09a.89.89,0,0,0,1,1h2a.89.89,0,0,0,1-1V23.56A.89.89,0,0,0,7.07,22.55Z"/><path id="_Path_3" data-name="&lt;Path&gt;" class="cls-1" d="M28.61,22.55h-2a.89.89,0,0,0-1,1v9.09a.89.89,0,0,0,1,1h2a.89.89,0,0,0,1-1V23.56A.89.89,0,0,0,28.61,22.55Z"/></g><path class="cls-1" d="M49.39,26a1.23,1.23,0,0,1-.89.36,1.22,1.22,0,0,1-1.23-1.23V11.86a1.23,1.23,0,0,1,1.23-1.23,1.23,1.23,0,0,1,.89.36,1.17,1.17,0,0,1,.37.87v5.38h5.81V11.86a1.23,1.23,0,0,1,1.23-1.23,1.23,1.23,0,0,1,.89.36,1.17,1.17,0,0,1,.37.87V25.09a1.17,1.17,0,0,1-.37.87,1.23,1.23,0,0,1-.89.36,1.22,1.22,0,0,1-1.23-1.23V19.71H49.76v5.38A1.17,1.17,0,0,1,49.39,26Z"/><path class="cls-1" d="M73,20.42a1,1,0,0,1-.33.8,1.22,1.22,0,0,1-.86.3H64.69A2.69,2.69,0,0,0,65.46,23a3.15,3.15,0,0,0,2.1,1,3.29,3.29,0,0,0,2.39-.55,1.17,1.17,0,0,1,.9-.36.93.93,0,0,1,.78.29,1,1,0,0,1,0,1.46,5.6,5.6,0,0,1-4,1.47,5.27,5.27,0,0,1-3.92-1.65,5.67,5.67,0,0,1,0-7.9,5.1,5.1,0,0,1,3.82-1.65,5.26,5.26,0,0,1,3.78,1.47A5.41,5.41,0,0,1,73,20.31Zm-5.4-3.18a3.16,3.16,0,0,0-2.08.81,2.92,2.92,0,0,0-.94,1.57h6.35a3.06,3.06,0,0,0-1.09-1.52A3.89,3.89,0,0,0,67.61,17.24Z"/><path class="cls-1" d="M76.93,24.68a5.57,5.57,0,0,1-1.54-4,5.61,5.61,0,0,1,1.54-4,5,5,0,0,1,3.8-1.65,5.06,5.06,0,0,1,3,1,1.4,1.4,0,0,1,.43-.71,1.12,1.12,0,0,1,.77-.28,1.09,1.09,0,0,1,.81.36,1.18,1.18,0,0,1,.35.85v8.81a1.15,1.15,0,0,1-.35.84,1.11,1.11,0,0,1-.81.35,1.15,1.15,0,0,1-.77-.27,1.34,1.34,0,0,1-.43-.7,5.07,5.07,0,0,1-3,1A5,5,0,0,1,76.93,24.68Zm.86-4A3.3,3.3,0,0,0,78.61,23a2.69,2.69,0,0,0,2.11.92A2.76,2.76,0,0,0,82.85,23a3.23,3.23,0,0,0,.84-2.26,3.29,3.29,0,0,0-.85-2.29,2.74,2.74,0,0,0-2.12-.94,2.69,2.69,0,0,0-2.1.93A3.31,3.31,0,0,0,77.79,20.73Z"/><path class="cls-1" d="M100.61,25.11a1.17,1.17,0,0,1-.36.85,1.14,1.14,0,0,1-.83.36,1.17,1.17,0,0,1-.8-.28,1.24,1.24,0,0,1-.41-.68,5.31,5.31,0,0,1-3,1,5.16,5.16,0,0,1-3.86-1.65,5.7,5.7,0,0,1,0-7.9,5.29,5.29,0,0,1,6.86-.72V11.84a1.23,1.23,0,0,1,1.22-1.21,1.22,1.22,0,0,1,1.22,1.21Zm-5.45-1.23a2.83,2.83,0,0,0,2.12-.93,3.11,3.11,0,0,0,.89-2.22,3.17,3.17,0,0,0-.87-2.23,2.88,2.88,0,0,0-4.26,0,3.17,3.17,0,0,0-.87,2.23A3.11,3.11,0,0,0,93,22.95,2.82,2.82,0,0,0,95.17,23.88Z"/><path class="cls-1" d="M107.35,30.17a1.2,1.2,0,0,1-.87.37,1.16,1.16,0,0,1-.86-.37,1.18,1.18,0,0,1-.36-.84v-13a1.14,1.14,0,0,1,.35-.84,1.13,1.13,0,0,1,.83-.35,1.32,1.32,0,0,1,.83.27,1,1,0,0,1,.41.65,5.49,5.49,0,0,1,3-.92,5.12,5.12,0,0,1,3.83,1.66,5.53,5.53,0,0,1,1.59,4,5.42,5.42,0,0,1-1.59,3.94,5.17,5.17,0,0,1-3.83,1.63,5,5,0,0,1-3-.92v3.95A1.16,1.16,0,0,1,107.35,30.17Zm5.48-11.69a2.83,2.83,0,0,0-2.13-.92,2.78,2.78,0,0,0-2.12.93,3.28,3.28,0,0,0-.86,2.32A2.77,2.77,0,0,0,108.6,23a2.72,2.72,0,0,0,2.1.94,2.82,2.82,0,0,0,2.13-.94,3.15,3.15,0,0,0,.89-2.23A3.33,3.33,0,0,0,112.84,18.47Z"/><path class="cls-1" d="M122.17,26a1.25,1.25,0,0,1-1.75,0,1.17,1.17,0,0,1-.37-.87V11.86a1.22,1.22,0,0,1,1.23-1.23,1.23,1.23,0,0,1,.89.36,1.17,1.17,0,0,1,.37.87v3.9a5.13,5.13,0,0,1,2.4-.65,4.69,4.69,0,0,1,3.45,1.45A4.74,4.74,0,0,1,129.83,20v5.07a1.23,1.23,0,1,1-2.47,0V20a2.31,2.31,0,0,0-.71-1.69,2.42,2.42,0,0,0-1.72-.73,2.35,2.35,0,0,0-1.68.73,2.41,2.41,0,0,0-.72,1.69v5.07A1.17,1.17,0,0,1,122.17,26Z"/><path class="cls-1" d="M138.69,26.39a5.08,5.08,0,0,1-3.83-1.66,5.8,5.8,0,0,1,0-7.95,5,5,0,0,1,3.8-1.67,5,5,0,0,1,3.78,1.69,5.74,5.74,0,0,1,1.56,4,5.15,5.15,0,0,1-1.57,3.86A4.75,4.75,0,0,1,138.69,26.39Zm-2.15-8a3.46,3.46,0,0,0-.81,2.33,3.63,3.63,0,0,0,.81,2.38,3.09,3.09,0,0,0,4.22,0,3.46,3.46,0,0,0,.87-2.38,3.3,3.3,0,0,0-.87-2.33,3,3,0,0,0-4.22,0Z"/><path class="cls-1" d="M150.24,25.13a1.1,1.1,0,0,1-.38.84,1.24,1.24,0,0,1-.86.35,1.13,1.13,0,0,1-.83-.35,1.14,1.14,0,0,1-.35-.84V16.3a1.2,1.2,0,0,1,2.29-.49,4.36,4.36,0,0,1,2.38-.69,4.69,4.69,0,0,1,4.69,4.66v5.36a1.16,1.16,0,0,1-.34.84,1.09,1.09,0,0,1-.82.35,1.17,1.17,0,0,1-.84-.35,1.13,1.13,0,0,1-.36-.84V19.77a2.15,2.15,0,0,0-.68-1.6,2.27,2.27,0,0,0-1.64-.66,2.16,2.16,0,0,0-1.6.66,2.2,2.2,0,0,0-.65,1.6Z"/><path class="cls-1" d="M171.65,20.42a1,1,0,0,1-.33.8,1.22,1.22,0,0,1-.86.3h-7.13a2.69,2.69,0,0,0,.76,1.48,3.15,3.15,0,0,0,2.1,1,3.29,3.29,0,0,0,2.39-.55,1.17,1.17,0,0,1,.9-.36.93.93,0,0,1,.78.29,1,1,0,0,1,0,1.46,5.6,5.6,0,0,1-4,1.47,5.27,5.27,0,0,1-3.92-1.65,5.67,5.67,0,0,1,0-7.9,5.1,5.1,0,0,1,3.82-1.65A5.26,5.26,0,0,1,170,16.58a5.41,5.41,0,0,1,1.67,3.73Zm-5.4-3.18a3.16,3.16,0,0,0-2.08.81,2.92,2.92,0,0,0-.94,1.57h6.35a3.06,3.06,0,0,0-1.09-1.52A3.89,3.89,0,0,0,166.25,17.24Z"/><path class="cls-1" d="M182.14,16.34a1.15,1.15,0,0,1,.5.75,1.24,1.24,0,0,1-.15.91,1.15,1.15,0,0,1-.75.5,1.14,1.14,0,0,1-.91-.19,4.08,4.08,0,0,0-2.07-.83,2.1,2.1,0,0,0-1.33.4q-.36.25-.36.44a.54.54,0,0,0,.06.28.74.74,0,0,0,.24.2,4.39,4.39,0,0,0,1.64.54l0,0h0a9.52,9.52,0,0,1,2.18.67,3.16,3.16,0,0,1,1.46,1.23,3,3,0,0,1,.47,1.55,3.11,3.11,0,0,1-1.41,2.6,5,5,0,0,1-2.92.9,6.42,6.42,0,0,1-4-1.55,1.14,1.14,0,0,1-.41-.8,1.07,1.07,0,0,1,.26-.86,1.06,1.06,0,0,1,.81-.45,1.13,1.13,0,0,1,.87.27,3.73,3.73,0,0,0,2.47,1,2.79,2.79,0,0,0,1.52-.43q.4-.34.4-.57a.57.57,0,0,0-.07-.33.74.74,0,0,0-.29-.27,4.89,4.89,0,0,0-1.79-.63h0a8.32,8.32,0,0,1-2.07-.65,3.5,3.5,0,0,1-1.42-1.23,2.66,2.66,0,0,1-.38-1.41A3,3,0,0,1,176,15.94a4.78,4.78,0,0,1,2.77-.83A6,6,0,0,1,182.14,16.34Z"/><path class="cls-1" d="M201.2,19.12a3.86,3.86,0,0,1,1.52,3.25,6.06,6.06,0,0,0,.09,1.32,1.21,1.21,0,0,1,.61,1.88,1.28,1.28,0,0,1-1.1.52h0a1.77,1.77,0,0,1-1.59-1,6.34,6.34,0,0,1-.47-2.69,1.94,1.94,0,0,0-.94-1.61,3.9,3.9,0,0,0-1.26-.54h-2.65v4.87A1.17,1.17,0,0,1,195,26a1.23,1.23,0,0,1-.89.36,1.22,1.22,0,0,1-1.23-1.23V11.86a1.23,1.23,0,0,1,1.23-1.23h4a4.61,4.61,0,0,1,3.4,1.41,4.8,4.8,0,0,1,1.4,3.52A4.48,4.48,0,0,1,201.2,19.12Zm-3-1.39a2.3,2.3,0,0,0,2.31-2.3,2.25,2.25,0,0,0-.67-1.64,2.21,2.21,0,0,0-1.64-.68h-2.76v4.62Z"/><path class="cls-1" d="M217.08,20.42a1,1,0,0,1-.33.8,1.22,1.22,0,0,1-.86.3h-7.13a2.69,2.69,0,0,0,.76,1.48,3.15,3.15,0,0,0,2.1,1,3.29,3.29,0,0,0,2.39-.55,1.17,1.17,0,0,1,.9-.36.93.93,0,0,1,.78.29,1,1,0,0,1,0,1.46,5.6,5.6,0,0,1-4,1.47,5.27,5.27,0,0,1-3.92-1.65,5.67,5.67,0,0,1,0-7.9,5.1,5.1,0,0,1,3.82-1.65,5.26,5.26,0,0,1,3.78,1.47,5.41,5.41,0,0,1,1.67,3.73Zm-5.4-3.18a3.16,3.16,0,0,0-2.08.81,2.92,2.92,0,0,0-.94,1.57H215a3.06,3.06,0,0,0-1.09-1.52A3.89,3.89,0,0,0,211.67,17.24Z"/><path class="cls-1" d="M230.44,30.15a1.22,1.22,0,0,1-1.73,0,1.14,1.14,0,0,1-.36-.83V25.38a5.32,5.32,0,0,1-6.86-.7,5.73,5.73,0,0,1,0-7.93,5.16,5.16,0,0,1,3.86-1.65,5.61,5.61,0,0,1,3,.94,1.06,1.06,0,0,1,.4-.67,1.26,1.26,0,0,1,.81-.27,1.14,1.14,0,0,1,.83.36,1.17,1.17,0,0,1,.36.85v13A1.14,1.14,0,0,1,230.44,30.15Zm-5.06-12.62a2.87,2.87,0,0,0-2.14,1,3.21,3.21,0,0,0,0,4.47,2.87,2.87,0,0,0,2.17,1,2.49,2.49,0,0,0,2-.94,2.91,2.91,0,0,0,.92-2.24,2.91,2.91,0,0,0-.92-2.24A2.6,2.6,0,0,0,225.38,17.53Z"/><path class="cls-1" d="M244.61,21.66a4.45,4.45,0,0,1-1.4,3.29,4.57,4.57,0,0,1-3.32,1.38,4.69,4.69,0,0,1-4.67-4.66V16.3a1.16,1.16,0,0,1,.35-.83,1.17,1.17,0,0,1,1.68,0,1.16,1.16,0,0,1,.35.83v5.36a2.26,2.26,0,0,0,2.29,2.29,2.29,2.29,0,0,0,1.65-.66,2.25,2.25,0,0,0,.71-1.63V16.3a1.18,1.18,0,0,1,.34-.83,1.08,1.08,0,0,1,.82-.36,1.19,1.19,0,0,1,.85.36,1.12,1.12,0,0,1,.37.83Z"/><path class="cls-1" d="M251.63,11.84v.47a1.21,1.21,0,0,1-.35.87,1.14,1.14,0,0,1-.85.36,1.22,1.22,0,0,1-1.22-1.23v-.47a1.16,1.16,0,0,1,.36-.85,1.18,1.18,0,0,1,.86-.36,1.16,1.16,0,0,1,.85.35A1.17,1.17,0,0,1,251.63,11.84Zm-2.07,3.64a1.25,1.25,0,0,1,1.73,0,1.2,1.2,0,0,1,.35.89v8.74a1.17,1.17,0,0,1-.35.86,1.16,1.16,0,0,1-.85.35,1.18,1.18,0,0,1-.86-.36,1.16,1.16,0,0,1-.36-.85V16.36A1.2,1.2,0,0,1,249.56,15.48Z"/><path class="cls-1" d="M257.91,16.45a3.63,3.63,0,0,1,1.41-1,4.17,4.17,0,0,1,1.64-.36,1.55,1.55,0,0,1,1.09.35,1.1,1.1,0,0,1,.35.82,1.17,1.17,0,0,1-.35.84,1.13,1.13,0,0,1-.84.36q-2.09,0-3.3,3.39v4.26a1.13,1.13,0,0,1-.36.84,1.19,1.19,0,0,1-.86.35,1.16,1.16,0,0,1-.85-.35,1.14,1.14,0,0,1-.35-.84V16.3a1.11,1.11,0,0,1,.35-.83,1.18,1.18,0,0,1,.85-.34,1.22,1.22,0,0,1,.86.34,1.09,1.09,0,0,1,.36.83Z"/><path class="cls-1" d="M275.42,20.42a1,1,0,0,1-.33.8,1.22,1.22,0,0,1-.86.3H267.1a2.69,2.69,0,0,0,.76,1.48,3.15,3.15,0,0,0,2.1,1,3.29,3.29,0,0,0,2.39-.55,1.17,1.17,0,0,1,.9-.36.93.93,0,0,1,.78.29,1,1,0,0,1,0,1.46,5.6,5.6,0,0,1-4,1.47,5.27,5.27,0,0,1-3.92-1.65,5.67,5.67,0,0,1,0-7.9A5.1,5.1,0,0,1,270,15.11a5.26,5.26,0,0,1,3.78,1.47,5.41,5.41,0,0,1,1.67,3.73ZM270,17.24a3.16,3.16,0,0,0-2.08.81,2.92,2.92,0,0,0-.94,1.57h6.35a3.06,3.06,0,0,0-1.09-1.52A3.89,3.89,0,0,0,270,17.24Z"/><path class="cls-1" d="M289.14,25.11a1.17,1.17,0,0,1-.36.85,1.14,1.14,0,0,1-.83.36,1.17,1.17,0,0,1-.8-.28,1.24,1.24,0,0,1-.41-.68,5.31,5.31,0,0,1-3,1,5.16,5.16,0,0,1-3.86-1.65,5.7,5.7,0,0,1,0-7.9,5.29,5.29,0,0,1,6.86-.72V11.84a1.23,1.23,0,0,1,1.22-1.21,1.22,1.22,0,0,1,1.22,1.21Zm-5.45-1.23a2.83,2.83,0,0,0,2.12-.93,3.11,3.11,0,0,0,.89-2.22,3.17,3.17,0,0,0-.87-2.23,2.88,2.88,0,0,0-4.26,0,3.17,3.17,0,0,0-.87,2.23,3.11,3.11,0,0,0,.89,2.22A2.82,2.82,0,0,0,283.69,23.88Z"/></g></g></svg>