<svg xmlns="http://www.w3.org/2000/svg" viewBox="0 0 33.66 33.66"><defs><style>.cls-1{fill:#fff;}</style></defs><title>headphones</title><g id="Layer_2" data-name="Layer 2"><g id="WebVR_Button" data-name="WebVR Button"><g id="_Group_" data-name="&lt;Group&gt;"><path id="_Path_" data-name="&lt;Path&gt;" class="cls-1" d="M16.83,0A16.85,16.85,0,0,0,0,16.83v8.75a1.35,1.35,0,1,0,2.69,0V16.83a14.14,14.14,0,0,1,28.28,0v8.75a1.35,1.35,0,1,0,2.69,0V16.83A16.85,16.85,0,0,0,16.83,0Z"/><path id="_Path_2" data-name="&lt;Path&gt;" class="cls-1" d="M7.07,22.55H5a.89.89,0,0,0-1,1v9.09a.89.89,0,0,0,1,1h2a.89.89,0,0,0,1-1V23.56A.89.89,0,0,0,7.07,22.55Z"/><path id="_Path_3" data-name="&lt;Path&gt;" class="cls-1" d="M28.61,22.55h-2a.89.89,0,0,0-1,1v9.09a.89.89,0,0,0,1,1h2a.89.89,0,0,0,1-1V23.56A.89.89,0,0,0,28.61,22.55Z"/></g></g></g></svg>