<?xml version="1.0" encoding="UTF-8" standalone="no"?>
<svg width="109px" height="17px" viewBox="0 0 109 17" version="1.1" xmlns="http://www.w3.org/2000/svg" xmlns:xlink="http://www.w3.org/1999/xlink">
    <!-- Generator: Sketch 42 (36781) - http://www.bohemiancoding.com/sketch -->
    <title>try_it_in_360</title>
    <desc>Created with Sketch.</desc>
    <defs></defs>
    <g id="Page-1" stroke="none" stroke-width="1" fill="none" fill-rule="evenodd">
        <g id="try_it_in_360">
            <path d="M11.566,1.39 C11.566,0.832 11.116,0.4 10.576,0.4 L2.89,0.4 C2.332,0.4 1.9,0.832 1.9,1.39 C1.9,1.93 2.332,2.398 2.89,2.398 L5.734,2.398 L5.734,12.01 C5.734,12.568 6.184,13 6.724,13 C7.282,13 7.714,12.568 7.714,12.01 L7.714,2.398 L10.576,2.398 C11.116,2.398 11.566,1.93 11.566,1.39 Z M17.128,4.018 C16.228,4 15.454,4.324 14.86,4.72 C14.734,4.81 14.59,4.954 14.482,5.08 L14.482,4.954 C14.482,4.432 14.032,4.018 13.492,4.018 C12.97,4.018 12.538,4.432 12.538,4.954 L12.538,12.046 C12.538,12.568 12.97,13 13.492,13 C14.032,13 14.482,12.568 14.482,12.046 L14.482,8.626 C14.572,8.374 14.788,7.69 15.22,7.114 C15.436,6.772 15.706,6.466 16.048,6.25 C16.354,6.016 16.714,5.908 17.128,5.908 C17.668,5.908 18.082,5.458 18.082,4.954 C18.082,4.432 17.668,4.018 17.128,4.018 Z M26.254,4 C25.714,4 25.318,4.414 25.318,4.954 L25.318,9.202 C25.318,10.246 24.49,11.038 23.464,11.038 C22.438,11.038 21.592,10.246 21.592,9.202 L21.592,4.954 C21.592,4.414 21.196,4 20.638,4 C20.152,4 19.702,4.414 19.702,4.954 L19.702,9.202 C19.702,11.272 21.394,12.982 23.464,12.982 C24.058,12.982 24.67,12.838 25.174,12.55 C24.886,13.486 23.986,14.17 22.924,14.188 C22.564,14.188 22.222,14.098 21.88,13.936 C21.448,13.702 20.836,13.9 20.602,14.332 C20.386,14.836 20.566,15.394 21.07,15.61 C21.61,15.88 22.276,16.06 22.924,16.06 C25.318,16.06 27.226,14.17 27.226,11.758 L27.226,4.954 C27.226,4.414 26.776,4 26.254,4 Z M37.414,4.018 C36.874,4.018 36.442,4.432 36.442,5.008 L36.442,12.028 C36.442,12.568 36.874,13 37.414,13 C37.972,13 38.386,12.568 38.386,12.028 L38.386,5.008 C38.386,4.432 37.972,4.018 37.414,4.018 Z M38.386,1.372 C38.386,0.832 37.972,0.4 37.414,0.4 C36.874,0.4 36.442,0.832 36.442,1.372 L36.442,1.75 C36.442,2.29 36.874,2.74 37.414,2.74 C37.972,2.74 38.386,2.29 38.386,1.75 L38.386,1.372 Z M44.524,4 L44.074,4 L44.074,1.39 C44.074,0.832 43.642,0.4 43.084,0.4 C42.526,0.4 42.076,0.832 42.076,1.39 L42.076,4 L41.554,4 C40.996,4 40.564,4.432 40.564,4.99 C40.564,5.53 40.996,5.98 41.554,5.98 L42.076,5.98 L42.076,11.002 C42.076,12.1 42.976,13 44.074,13 C44.632,13 45.064,12.568 45.064,12.01 C45.064,11.452 44.632,11.002 44.074,11.002 L44.074,5.98 L44.524,5.98 C45.064,5.98 45.532,5.53 45.532,4.99 C45.532,4.432 45.064,4 44.524,4 Z M55.072,4.018 C54.532,4.018 54.1,4.432 54.1,5.008 L54.1,12.028 C54.1,12.568 54.532,13 55.072,13 C55.63,13 56.044,12.568 56.044,12.028 L56.044,5.008 C56.044,4.432 55.63,4.018 55.072,4.018 Z M56.044,1.372 C56.044,0.832 55.63,0.4 55.072,0.4 C54.532,0.4 54.1,0.832 54.1,1.372 L54.1,1.75 C54.1,2.29 54.532,2.74 55.072,2.74 C55.63,2.74 56.044,2.29 56.044,1.75 L56.044,1.372 Z M62.884,4 C62.182,4 61.516,4.216 60.976,4.558 C60.814,4.216 60.472,4 60.094,4 C59.554,4 59.14,4.432 59.14,4.954 L59.14,12.046 C59.14,12.568 59.554,13 60.094,13 C60.562,13 60.958,12.658 61.048,12.226 C61.084,12.154 61.084,12.1 61.084,12.046 L61.084,7.744 C61.084,6.736 61.876,5.926 62.884,5.926 C63.91,5.926 64.756,6.736 64.756,7.744 L64.756,12.046 C64.756,12.568 65.206,13 65.71,13 C66.232,13 66.646,12.568 66.646,12.046 L66.646,7.744 C66.646,5.71 64.972,4 62.884,4 Z M80.632,4.468 L82.9,2.128 C82.972,2.056 83.026,1.966 83.08,1.876 C83.152,1.732 83.206,1.57 83.206,1.39 C83.206,0.832 82.756,0.382 82.18,0.382 L76.87,0.382 C76.312,0.382 75.862,0.832 75.862,1.39 C75.862,1.966 76.312,2.416 76.87,2.416 L79.786,2.416 L77.95,4.288 C77.572,4.702 77.572,5.332 77.986,5.728 C77.986,5.746 77.986,5.746 78.004,5.746 C78.184,5.962 78.454,6.088 78.742,6.07 C79.372,6.088 79.984,6.304 80.452,6.79 C80.938,7.258 81.172,7.87 81.172,8.5 C81.172,9.13 80.938,9.742 80.452,10.228 C79.966,10.696 79.354,10.93 78.724,10.93 C78.094,10.93 77.482,10.696 77.014,10.228 C76.618,9.832 75.97,9.832 75.574,10.228 C75.178,10.624 75.178,11.272 75.574,11.668 C76.438,12.532 77.59,12.982 78.724,12.982 C79.876,12.982 81.028,12.532 81.892,11.668 C82.774,10.786 83.206,9.634 83.206,8.5 C83.206,7.366 82.774,6.214 81.892,5.35 C81.532,4.972 81.1,4.684 80.632,4.468 Z M90.424,4.288 C92.836,4.288 94.798,6.232 94.798,8.644 C94.798,11.056 92.836,13 90.424,13 C88.156,13 86.302,11.29 86.086,9.094 C86.086,9.076 86.086,9.076 86.068,9.058 C86.05,8.716 86.032,8.374 86.032,8.032 C86.032,6.826 86.212,5.53 86.662,4.342 C87.112,3.154 87.85,2.02 88.984,1.264 C89.74,0.76 90.658,0.454 91.684,0.418 C92.242,0.4 92.692,0.814 92.728,1.372 C92.746,1.912 92.314,2.362 91.756,2.416 C91.072,2.434 90.532,2.632 90.064,2.92 C89.614,3.226 89.236,3.64 88.93,4.18 C88.84,4.324 88.768,4.486 88.696,4.648 C89.218,4.414 89.812,4.288 90.424,4.288 Z M90.424,11.002 C91.738,11.002 92.8,9.958 92.8,8.644 C92.8,7.348 91.738,6.268 90.424,6.268 C89.11,6.268 88.066,7.348 88.066,8.644 C88.066,9.958 89.11,11.002 90.424,11.002 Z M98.83,11.002 C98.038,9.85 97.624,8.338 97.606,6.7 C97.624,5.044 98.038,3.55 98.83,2.398 C99.586,1.246 100.756,0.4 102.178,0.4 C103.564,0.4 104.752,1.246 105.508,2.398 C106.282,3.55 106.714,5.044 106.714,6.7 C106.714,8.338 106.282,9.85 105.508,11.002 C104.752,12.136 103.564,13 102.178,13 C100.756,13 99.586,12.136 98.83,11.002 Z M103.852,9.886 C104.356,9.13 104.716,7.978 104.716,6.7 C104.716,5.404 104.356,4.27 103.852,3.496 C103.33,2.74 102.736,2.38 102.178,2.398 C101.62,2.38 101.008,2.74 100.468,3.496 C99.964,4.27 99.604,5.404 99.604,6.7 C99.604,7.978 99.964,9.13 100.468,9.886 C101.008,10.66 101.62,11.002 102.178,11.002 C102.736,11.002 103.33,10.66 103.852,9.886 Z" id="Try-it-in-360-Copy" fill="#FFFFFF"></path>
            <path d="M24.5,14.5 L108.5,14.5" id="Line-Copy-2" stroke="#FFFFFF" stroke-linecap="square"></path>
            <path d="M0.5,14.5 L17.5,14.5" id="Line-Copy-3" stroke="#FFFFFF" stroke-linecap="square"></path>
        </g>
    </g>
</svg>