<?xml version="1.0" encoding="UTF-8" standalone="no"?>
<svg width="300px" height="94px" viewBox="0 0 300 94" version="1.1" xmlns="http://www.w3.org/2000/svg" xmlns:xlink="http://www.w3.org/1999/xlink">
    <!-- Generator: Sketch 42 (36781) - http://www.bohemiancoding.com/sketch -->
    <title>play_again_2_btn</title>
    <desc>Created with Sketch.</desc>
    <defs></defs>
    <g id="Page-1" stroke="none" stroke-width="1" fill="none" fill-rule="evenodd">
        <g id="play_again_2_btn">
            <rect id="Rectangle-3-Copy-18" fill="#FFFFFF" x="0" y="0" width="299.468284" height="93.1679104" rx="3"></rect>
            <path d="M57.7465639,46.102484 L59.443847,46.102484 C61.0302046,46.102484 62.2171816,45.7890999 63.0048136,45.1623223 C63.7924457,44.5355446 64.1862558,43.6231254 64.1862558,42.4250372 C64.1862558,41.2158556 63.8562318,40.3228495 63.196174,39.7459922 C62.5361161,39.169135 61.5016712,38.8807106 60.0928082,38.8807106 L57.7465639,38.8807106 L57.7465639,46.102484 Z M69.3945855,42.2419969 C69.3945855,44.8600415 68.5764588,46.8623718 66.9401809,48.249048 C65.303903,49.6357242 62.9770953,50.3290518 59.959688,50.3290518 L57.7465639,50.3290518 L57.7465639,58.9818679 L52.5881544,58.9818679 L52.5881544,34.6541428 L60.3590487,34.6541428 C63.3098956,34.6541428 65.553504,35.289231 67.0899412,36.5594264 C68.6263784,37.8296217 69.3945855,39.723793 69.3945855,42.2419969 Z M73.987234,58.9818679 L73.987234,34.6541428 L79.1456435,34.6541428 L79.1456435,54.72202 L89.0131818,54.72202 L89.0131818,58.9818679 L73.987234,58.9818679 Z M108.132577,58.9818679 L106.368734,53.1911371 L97.4995975,53.1911371 L95.7357542,58.9818679 L90.1779839,58.9818679 L98.7642398,34.5543026 L105.070811,34.5543026 L113.690347,58.9818679 L108.132577,58.9818679 Z M105.137372,48.8647291 C103.50664,43.6175465 102.588675,40.650104 102.383447,39.9623126 C102.178218,39.2745213 102.031233,38.7309524 101.942486,38.3315896 C101.576403,39.751546 100.528092,43.2625574 98.7975199,48.8647291 L105.137372,48.8647291 Z M122.276603,44.6714414 L127.351813,34.6541428 L132.909583,34.6541428 L124.839168,49.5136903 L124.839168,58.9818679 L119.714039,58.9818679 L119.714039,49.6800906 L111.643624,34.6541428 L117.234674,34.6541428 L122.276603,44.6714414 Z M159.716673,58.9818679 L157.952829,53.1911371 L149.083693,53.1911371 L147.31985,58.9818679 L141.762079,58.9818679 L150.348335,34.5543026 L156.654907,34.5543026 L165.274443,58.9818679 L159.716673,58.9818679 Z M156.721467,48.8647291 C155.090736,43.6175465 154.17277,40.650104 153.967542,39.9623126 C153.762314,39.2745213 153.615328,38.7309524 153.526581,38.3315896 C153.160499,39.751546 152.112187,43.2625574 150.381615,48.8647291 L156.721467,48.8647291 Z M176.889184,45.3204026 L186.540402,45.3204026 L186.540402,57.9335459 C184.976232,58.4438427 183.503604,58.8015998 182.122474,59.0068279 C180.741345,59.212056 179.329729,59.3146685 177.887586,59.3146685 C174.215668,59.3146685 171.411851,58.2358506 169.476051,56.0781825 C167.540251,53.9205144 166.572365,50.8227263 166.572365,46.7847253 C166.572365,42.8576584 167.695556,39.7959233 169.941972,37.5994283 C172.188387,35.4029332 175.302815,34.3047022 179.285349,34.3047022 C181.781366,34.3047022 184.1886,34.8038981 186.507122,35.8023049 L184.793199,39.9290326 C183.018254,39.0415598 181.171229,38.5978301 179.252069,38.5978301 C177.022294,38.5978301 175.236281,39.346624 173.893979,40.8442343 C172.551676,42.3418445 171.880535,44.3552681 171.880535,46.8845655 C171.880535,49.5247969 172.421331,51.5409938 173.502938,52.9332167 C174.584546,54.3254395 176.157013,55.0215405 178.220387,55.0215405 C179.296448,55.0215405 180.389132,54.9106081 181.498473,54.6887399 L181.498473,49.6135305 L176.889184,49.6135305 L176.889184,45.3204026 Z M207.223961,58.9818679 L205.460117,53.1911371 L196.590981,53.1911371 L194.827138,58.9818679 L189.269367,58.9818679 L197.855623,34.5543026 L204.162195,34.5543026 L212.781731,58.9818679 L207.223961,58.9818679 Z M204.228755,48.8647291 C202.598024,43.6175465 201.680058,40.650104 201.47483,39.9623126 C201.269602,39.2745213 201.122616,38.7309524 201.033869,38.3315896 C200.667787,39.751546 199.619475,43.2625574 197.888903,48.8647291 L204.228755,48.8647291 Z M215.843497,58.9818679 L215.843497,34.6541428 L221.001906,34.6541428 L221.001906,58.9818679 L215.843497,58.9818679 Z M248.707557,58.9818679 L242.151385,58.9818679 L231.568326,40.5779938 L231.418565,40.5779938 C231.62934,43.8283627 231.734726,46.1468505 231.734726,47.5335267 L231.734726,58.9818679 L227.125437,58.9818679 L227.125437,34.6541428 L233.631689,34.6541428 L244.198109,52.8749765 L244.314589,52.8749765 C244.148188,49.7133549 244.064989,47.4780664 244.064989,46.1690441 L244.064989,34.6541428 L248.707557,34.6541428 L248.707557,58.9818679 Z" id="PLAY-AGAIN" fill="#999999"></path>
        </g>
    </g>
</svg>