<svg xmlns="http://www.w3.org/2000/svg" viewBox="0 0 61.33 61.33"><defs><style>.cls-1{fill:#fff;}</style></defs><title>info_btn</title><g id="Layer_2" data-name="Layer 2"><g id="Layer_1-2" data-name="Layer 1"><circle class="cls-1" cx="30.67" cy="30.67" r="30.67"/><path d="M32.49,33.77v3.16a2.32,2.32,0,0,1-2.38,2.38,2.38,2.38,0,0,1-2.38-2.38v-5s0,0,0-.1,0,0,0-.1a2.45,2.45,0,0,1,2.38-2.38,5.44,5.44,0,1,0,0-10.88,5.36,5.36,0,0,0-4.66,2.67,2.4,2.4,0,0,1-3.3.87,2.37,2.37,0,0,1-.83-3.25A10.2,10.2,0,1,1,32.49,33.77Zm0,10.63v.87a2.32,2.32,0,0,1-2.38,2.38,2.38,2.38,0,0,1-2.38-2.38v-.87A2.41,2.41,0,0,1,30.11,42,2.35,2.35,0,0,1,32.49,44.41Z"/></g></g></svg>