<svg xmlns="http://www.w3.org/2000/svg" viewBox="0 0 971.33 185"><defs><style>.cls-1{fill:#fff;}</style></defs><title>logo_1line</title><g id="Layer_2" data-name="Layer 2"><g id="WebVR_Button" data-name="WebVR Button"><g id="_Group_" data-name="&lt;Group&gt;"><path id="_Compound_Path_" data-name="&lt;Compound Path&gt;" class="cls-1" d="M1.49,74.49a7.11,7.11,0,0,1,10-1c6,4.91,16.37,10.64,26.06,10.51,6.82,0,13-2,17.05-5s5.87-6.41,5.87-9.82A7.79,7.79,0,0,0,59.2,64.8a12.86,12.86,0,0,0-4.09-4.09c-4-2.59-10.64-4.91-18.69-6.41h-.27A73.82,73.82,0,0,1,18.54,49,29.34,29.34,0,0,1,5.85,38.34,20.94,20.94,0,0,1,2.72,27.15C2.72,19,7.36,11.87,13.63,7.23A40.34,40.34,0,0,1,37.23,0C50.33,0,60,6.41,67,10.91a7,7,0,0,1,1.91,9.69,6.89,6.89,0,0,1-9.69,2c-7-4.64-13.64-8.73-22-8.73A26.06,26.06,0,0,0,22,18.55c-3.68,2.73-5.18,5.73-5.18,8.59a6.63,6.63,0,0,0,1,3.82,13.13,13.13,0,0,0,3.68,3.55c3.55,2.46,9.69,4.64,17.05,6h.27a80.28,80.28,0,0,1,18.83,5.73C63.16,49,68.07,52.53,71.2,57.57a22.12,22.12,0,0,1,3.27,11.6c0,8.73-4.91,16.24-11.73,21.15a42.66,42.66,0,0,1-25.24,7.78C22.77,98,10.36,90.59,2.58,84.45A7.26,7.26,0,0,1,1.49,74.49Z"/><path id="_Compound_Path_2" data-name="&lt;Compound Path&gt;" class="cls-1" d="M100.26,88.27a34,34,0,0,1-9.41-24,35.2,35.2,0,0,1,9.41-23.88C106.4,34,114.31,30,123.73,30a30.17,30.17,0,0,1,22.78,10.37,34.09,34.09,0,0,1,9.55,23.88c0,9.55-3.41,18-9.55,24a30.17,30.17,0,0,1-22.78,10.37C114.31,98.64,106.4,94.68,100.26,88.27Zm5.46-24a22.06,22.06,0,0,0,4.91,14.46,18.46,18.46,0,0,0,13.1,5,17.86,17.86,0,0,0,12.55-5,21,21,0,0,0,5.32-14.46,20.52,20.52,0,0,0-5.32-14.19,19.27,19.27,0,0,0-12.55-5.18,19.84,19.84,0,0,0-13.1,5.18A21.58,21.58,0,0,0,105.72,64.26Z"/><path id="_Compound_Path_3" data-name="&lt;Compound Path&gt;" class="cls-1" d="M231.47,58.39V91a7.16,7.16,0,0,1-7.09,7.23A7.37,7.37,0,0,1,217.15,91V58.39A14,14,0,0,0,203,44.61a13.63,13.63,0,0,0-13.64,13.78V91a2.7,2.7,0,0,1-.27,1.36,7.46,7.46,0,0,1-7.23,5.87A7.19,7.19,0,0,1,174.58,91V37.25A7.19,7.19,0,0,1,181.81,30a7.38,7.38,0,0,1,6.68,4.23A27.24,27.24,0,0,1,203,30,28.56,28.56,0,0,1,231.47,58.39Z"/><path id="_Compound_Path_4" data-name="&lt;Compound Path&gt;" class="cls-1" d="M265,13a7.37,7.37,0,0,1-7.37,7.5A7.45,7.45,0,0,1,250.3,13V10.1a7.34,7.34,0,0,1,7.37-7.37A7.25,7.25,0,0,1,265,10.1Zm0,24.69V90.86a7.25,7.25,0,0,1-7.37,7.37,7.34,7.34,0,0,1-7.37-7.37V37.65a7.28,7.28,0,0,1,7.37-7.5A7.21,7.21,0,0,1,265,37.65Z"/><path id="_Compound_Path_5" data-name="&lt;Compound Path&gt;" class="cls-1" d="M283.52,64.26c0-19,15.83-34.11,34.65-34.24a36,36,0,0,1,21.69,7.5,7.5,7.5,0,0,1,1.5,10.1A7.27,7.27,0,0,1,331.13,49a21.77,21.77,0,0,0-13-4.37c-11.05,0-20.19,9.14-20.19,19.65s9.14,19.51,20.19,19.51a22.09,22.09,0,0,0,13-4.37,7.43,7.43,0,0,1,10.23,1.5,7.54,7.54,0,0,1-1.5,10.1,37.58,37.58,0,0,1-21.69,7.23C299.34,98.23,283.52,82.95,283.52,64.26Z"/><path id="_Compound_Path_6" data-name="&lt;Compound Path&gt;" class="cls-1" d="M448.12,98.23A39.36,39.36,0,0,1,408.69,58.8V10.23a7.4,7.4,0,0,1,7.5-7.5,7.6,7.6,0,0,1,7.64,7.5V58.8a24.28,24.28,0,0,0,48.57,0V10.23A7.51,7.51,0,0,1,480,2.73a7.4,7.4,0,0,1,7.5,7.5V58.8A39.45,39.45,0,0,1,448.12,98.23Z"/><path id="_Compound_Path_7" data-name="&lt;Compound Path&gt;" class="cls-1" d="M563.4,58.26V91a7.28,7.28,0,0,1-7.23,7.23A7.49,7.49,0,0,1,548.8,91V58.26a13.92,13.92,0,0,0-27.83.41V91c0,.27-.14.68-.14,1v.41c-.14.27-.14.55-.41.82v.68a8,8,0,0,1-6.82,4.37c-.55,0-1-.14-1.36-.14A7.43,7.43,0,0,1,506.37,91V37.38A7.22,7.22,0,0,1,513.61,30a6.92,6.92,0,0,1,6.55,4.09A28.7,28.7,0,0,1,534.75,30a28.31,28.31,0,0,1,21.42,9.41A28.1,28.1,0,0,1,577.59,30,28.5,28.5,0,0,1,606,58.66V91a7.28,7.28,0,0,1-7.23,7.23A7.4,7.4,0,0,1,591.37,91V58.66a14,14,0,0,0-13.78-14.05A14.16,14.16,0,0,0,563.4,58.26Z"/><path id="_Compound_Path_8" data-name="&lt;Compound Path&gt;" class="cls-1" d="M624.79,64.26V10.1a7.44,7.44,0,0,1,14.87,0V35.74A32.3,32.3,0,0,1,657.95,30c18.42,0,33.15,15.55,33.15,34.24,0,18.42-14.73,34-33.15,34a33.28,33.28,0,0,1-18.55-5.87,7.35,7.35,0,0,1-7.23,5.87,7.42,7.42,0,0,1-7.37-7.37Zm14.87,0a19.2,19.2,0,0,0,5.46,13.51,17.44,17.44,0,0,0,12.82,5.59,17.66,17.66,0,0,0,12.82-5.59,19.78,19.78,0,0,0,0-27.29,17.67,17.67,0,0,0-12.82-5.59,17.44,17.44,0,0,0-12.82,5.59A19.38,19.38,0,0,0,639.66,64.26Z"/><path id="_Compound_Path_9" data-name="&lt;Compound Path&gt;" class="cls-1" d="M750.49,37.25a7.28,7.28,0,0,1-7.23,7.23,13,13,0,0,0-8.19,2.59,20.57,20.57,0,0,0-6.28,6.55,41.92,41.92,0,0,0-5.59,11.46V91a7.43,7.43,0,0,1-7.5,7.23A7.28,7.28,0,0,1,708.47,91V37.25a7.16,7.16,0,0,1,7.23-7.09,7.31,7.31,0,0,1,7.5,7.09v1a17.94,17.94,0,0,1,2.87-2.73,29.91,29.91,0,0,1,17.19-5.32A7.08,7.08,0,0,1,750.49,37.25Z"/><path id="_Compound_Path_10" data-name="&lt;Compound Path&gt;" class="cls-1" d="M755.71,64.12C755.85,45.57,770.31,30,789,30c17.74,0,31.79,13.23,32.88,31.65v.68a3.77,3.77,0,0,1-.14,1.23c-.41,3.27-3.27,5.46-7.09,5.46H771.26a17.9,17.9,0,0,0,4.64,9c2.86,3.27,8.32,5.73,13.1,6.14s10.78-.82,14.19-3.41c2.87-3,8.46-2.59,10.23-.41,1.77,1.91,3.14,6,0,8.87-6.68,6.14-14.73,9-24.42,9C770.31,98.09,755.85,82.68,755.71,64.12Zm14.87-6.68h38.61C807.83,52,800.87,43.93,789,43,777.4,43.52,771.67,51.84,770.58,57.44Z"/><path id="_Compound_Path_11" data-name="&lt;Compound Path&gt;" class="cls-1" d="M846.73,2.73a7.6,7.6,0,0,1,7.64,7.5V90.73a7.57,7.57,0,0,1-15.14,0V10.23A7.57,7.57,0,0,1,846.73,2.73Z"/><path id="_Compound_Path_12" data-name="&lt;Compound Path&gt;" class="cls-1" d="M880.7,2.73a7.6,7.6,0,0,1,7.64,7.5V90.73a7.57,7.57,0,0,1-15.14,0V10.23A7.57,7.57,0,0,1,880.7,2.73Z"/><path id="_Compound_Path_13" data-name="&lt;Compound Path&gt;" class="cls-1" d="M971.33,64.26V91a7.28,7.28,0,0,1-7.23,7.23A7.43,7.43,0,0,1,957,92.36a31,31,0,0,1-18.14,5.87,31.69,31.69,0,0,1-23.19-10,34.92,34.92,0,0,1-9.28-24,34.43,34.43,0,0,1,9.28-24A31.42,31.42,0,0,1,938.86,30,31.09,31.09,0,0,1,957,36a7.41,7.41,0,0,1,7.09-6,7.31,7.31,0,0,1,7.23,7.37Zm-14.46,0a20.06,20.06,0,0,0-5.32-14.05,16.86,16.86,0,0,0-12.69-5.59,16.45,16.45,0,0,0-12.69,5.59A20,20,0,0,0,921,64.26a20.46,20.46,0,0,0,5.18,14.05,17.18,17.18,0,0,0,12.69,5.32,17.63,17.63,0,0,0,12.69-5.32A20.56,20.56,0,0,0,956.87,64.26Z"/></g><path class="cls-1" d="M81.72,179.33l-.24.18h0a.69.69,0,0,0-.27.09h-.09a1.38,1.38,0,0,1-.57,0h-.09l-.21-.08-.11,0a1,1,0,0,1-.22-.15h0a1.66,1.66,0,0,1-.24-.23l-.18-.2v0a.47.47,0,0,1-.08-.13.5.5,0,0,0-.08-.14l-7.38-17.49a1.67,1.67,0,0,1,0-1.26,1.49,1.49,0,0,1,.89-.87,1.54,1.54,0,0,1,1.25,0,1.49,1.49,0,0,1,.88.88l5.88,13.89,3.87-9.21a1.54,1.54,0,0,1,1.54-1,1.59,1.59,0,0,1,1.58,1l3.87,9.21,5.85-13.89a1.6,1.6,0,0,1,.9-.88,1.62,1.62,0,0,1,1.26,0,1.63,1.63,0,0,1,.87,2.15l-7.35,17.49a1,1,0,0,1-.33.48.23.23,0,0,1,0,.09.8.8,0,0,0-.21.15h0l-.27.18h0l-.06,0-.21.08H92a1.38,1.38,0,0,1-.57,0h-.09l-.21-.08-.11,0a.57.57,0,0,1-.22-.17h0a1.1,1.1,0,0,1-.39-.42.43.43,0,0,1-.18-.3l-3.93-9.3-3.93,9.3a2.32,2.32,0,0,1-.12.27l-.21.21a.24.24,0,0,1,0,.09.88.88,0,0,0-.18.15Z"/><path class="cls-1" d="M108.46,179.15a1.67,1.67,0,0,1-2.34,0,1.57,1.57,0,0,1-.5-1.17v-17.7a1.64,1.64,0,0,1,1.65-1.65,1.64,1.64,0,0,1,1.18.48,1.57,1.57,0,0,1,.5,1.17v5.22a6.86,6.86,0,0,1,3.21-.87,6.27,6.27,0,0,1,4.62,1.94,6.35,6.35,0,0,1,1.92,4.63V178a1.65,1.65,0,1,1-3.3,0V171.2a3.09,3.09,0,0,0-.95-2.26,3.23,3.23,0,0,0-2.29-1,3.14,3.14,0,0,0-2.25,1,3.22,3.22,0,0,0-1,2.26V178A1.57,1.57,0,0,1,108.46,179.15Z"/><path class="cls-1" d="M124.48,177.44a7.87,7.87,0,0,1,0-10.6,6.67,6.67,0,0,1,5.08-2.21,6.77,6.77,0,0,1,4,1.32,1.88,1.88,0,0,1,.57-.94,1.49,1.49,0,0,1,1-.37,1.46,1.46,0,0,1,1.08.48,1.58,1.58,0,0,1,.47,1.14V178a1.53,1.53,0,0,1-.47,1.13,1.48,1.48,0,0,1-1.08.46,1.53,1.53,0,0,1-1-.36,1.79,1.79,0,0,1-.57-.93,6.78,6.78,0,0,1-4,1.29A6.69,6.69,0,0,1,124.48,177.44Zm1.16-5.29a4.41,4.41,0,0,0,1.09,3,3.6,3.6,0,0,0,2.82,1.23,3.69,3.69,0,0,0,2.85-1.23,4.32,4.32,0,0,0,1.13-3,4.4,4.4,0,0,0-1.14-3.06,3.67,3.67,0,0,0-2.83-1.26,3.6,3.6,0,0,0-2.81,1.25A4.44,4.44,0,0,0,125.64,172.15Z"/><path class="cls-1" d="M147.66,164.63a1.64,1.64,0,0,1,1.18.48,1.55,1.55,0,0,1,.5,1.15,1.6,1.6,0,0,1-.5,1.17,1.62,1.62,0,0,1-1.18.49h-.75v8.37a1.57,1.57,0,0,1,1.17.5,1.64,1.64,0,0,1,.48,1.19,1.64,1.64,0,0,1-1.65,1.65,3.33,3.33,0,0,1-3.33-3.33v-8.37h-.87a1.65,1.65,0,1,1,0-3.3h.87v-4.35a1.57,1.57,0,0,1,.5-1.17,1.64,1.64,0,0,1,1.18-.48,1.64,1.64,0,0,1,1.65,1.65v4.35Z"/><path class="cls-1" d="M170.58,178.94a3,3,0,0,1-.66.57h-.06a.29.29,0,0,0-.21.09h-.06a1.35,1.35,0,0,1-.32,0,1,1,0,0,1-.28,0h-.09a1.52,1.52,0,0,0-.3-.12q-.24-.06-.24-.18l-.12-.09c-.18-.16-.27-.26-.27-.3a.48.48,0,0,1-.08-.12.47.47,0,0,0-.08-.12L162.9,167a1.44,1.44,0,0,1,0-1.2,1.57,1.57,0,0,1,.84-.85,1.44,1.44,0,0,1,1.19,0,1.5,1.5,0,0,1,.84.88l3.54,8.07,2.1-5a1.5,1.5,0,0,1,1.49-1,1.44,1.44,0,0,1,1.46,1l2.13,5,3.54-8.07a1.39,1.39,0,0,1,.83-.88,1.51,1.51,0,0,1,1.21,0,1.56,1.56,0,0,1,.85.85,1.44,1.44,0,0,1,0,1.2l-5,11.64-.12.24,0,0a1,1,0,0,1-.39.36s0,0,0,0l-.12.07-.15.09-.07,0-.21.08h-.06a1.38,1.38,0,0,1-.57,0h-.06a.48.48,0,0,0-.21-.06l0,0h0a1.52,1.52,0,0,1-.27-.18v0l-.18-.15c-.08,0-.15-.07-.21-.21a0,0,0,0,1,0,0l-2.31-5.43-2.13,5.19-.15.24Z"/><path class="cls-1" d="M196,179.72a6.79,6.79,0,0,1-5.13-2.22,7.76,7.76,0,0,1,0-10.64,6.75,6.75,0,0,1,5.08-2.23A6.62,6.62,0,0,1,201,166.9a7.68,7.68,0,0,1,2.08,5.38,6.89,6.89,0,0,1-2.1,5.16A6.35,6.35,0,0,1,196,179.72ZM193.08,169a4.63,4.63,0,0,0-1.08,3.12,4.86,4.86,0,0,0,1.08,3.18,4.14,4.14,0,0,0,5.64,0,4.63,4.63,0,0,0,1.17-3.18,4.41,4.41,0,0,0-1.17-3.12,4.06,4.06,0,0,0-5.64,0Z"/><path class="cls-1" d="M220.44,173.39a6,6,0,0,1-1.87,4.4,6.12,6.12,0,0,1-4.44,1.85,6.27,6.27,0,0,1-6.25-6.24v-7.17a1.55,1.55,0,0,1,.46-1.11,1.56,1.56,0,0,1,2.25,0,1.55,1.55,0,0,1,.46,1.11v7.17a3,3,0,0,0,3.06,3.06,3.06,3.06,0,0,0,2.2-.88,3,3,0,0,0,.95-2.18v-7.17a1.58,1.58,0,0,1,.45-1.11,1.44,1.44,0,0,1,1.09-.48,1.59,1.59,0,0,1,1.14.48,1.51,1.51,0,0,1,.49,1.11Z"/><path class="cls-1" d="M226.77,160.28a1.64,1.64,0,0,1,1.65-1.65,1.64,1.64,0,0,1,1.18.48,1.57,1.57,0,0,1,.5,1.17V178a1.57,1.57,0,0,1-.5,1.17,1.64,1.64,0,0,1-1.18.48,1.64,1.64,0,0,1-1.65-1.65Z"/><path class="cls-1" d="M247.62,178a1.56,1.56,0,0,1-.48,1.14,1.52,1.52,0,0,1-1.11.48,1.57,1.57,0,0,1-1.07-.37,1.66,1.66,0,0,1-.55-.92,7.09,7.09,0,0,1-4.08,1.29,6.91,6.91,0,0,1-5.16-2.21,7.63,7.63,0,0,1,0-10.57,7.08,7.08,0,0,1,9.18-1v-5.64a1.56,1.56,0,0,1,.48-1.14,1.63,1.63,0,0,1,2.79,1.14Zm-7.29-1.65a3.78,3.78,0,0,0,2.83-1.25,4.16,4.16,0,0,0,1.19-3,4.24,4.24,0,0,0-1.17-3,3.85,3.85,0,0,0-5.7,0,4.24,4.24,0,0,0-1.17,3,4.16,4.16,0,0,0,1.18,3A3.78,3.78,0,0,0,240.33,176.36Z"/><path class="cls-1" d="M266.09,160.25v.63a1.62,1.62,0,0,1-.46,1.17,1.52,1.52,0,0,1-1.14.48,1.64,1.64,0,0,1-1.63-1.65v-.63a1.56,1.56,0,0,1,.48-1.14,1.58,1.58,0,0,1,1.16-.48,1.55,1.55,0,0,1,1.14.46A1.57,1.57,0,0,1,266.09,160.25Zm-2.77,4.88a1.67,1.67,0,0,1,2.31,0,1.6,1.6,0,0,1,.46,1.19V178a1.57,1.57,0,0,1-.46,1.16,1.55,1.55,0,0,1-1.14.46,1.57,1.57,0,0,1-1.16-.48,1.56,1.56,0,0,1-.48-1.14v-11.7A1.6,1.6,0,0,1,263.32,165.13Z"/><path class="cls-1" d="M276.33,164.63a1.64,1.64,0,0,1,1.18.48,1.55,1.55,0,0,1,.5,1.15,1.6,1.6,0,0,1-.5,1.17,1.62,1.62,0,0,1-1.18.49h-.75v8.37a1.57,1.57,0,0,1,1.17.5,1.64,1.64,0,0,1,.48,1.19,1.64,1.64,0,0,1-1.65,1.65,3.33,3.33,0,0,1-3.33-3.33v-8.37h-.87a1.65,1.65,0,1,1,0-3.3h.87v-4.35a1.57,1.57,0,0,1,.5-1.17,1.64,1.64,0,0,1,1.18-.48,1.64,1.64,0,0,1,1.65,1.65v4.35Z"/><path class="cls-1" d="M301.52,166.28a1.55,1.55,0,0,1,.68,1,1.67,1.67,0,0,1-.2,1.22,1.54,1.54,0,0,1-1,.67,1.52,1.52,0,0,1-1.21-.25,5.47,5.47,0,0,0-2.78-1.11,2.81,2.81,0,0,0-1.79.54c-.32.22-.48.42-.48.58a.72.72,0,0,0,.08.38,1,1,0,0,0,.31.27,5.89,5.89,0,0,0,2.19.72l0,0h0a12.73,12.73,0,0,1,2.91.9,4.23,4.23,0,0,1,2,1.65,4,4,0,0,1,.63,2.07,4.16,4.16,0,0,1-1.89,3.48,6.71,6.71,0,0,1-3.9,1.2,8.59,8.59,0,0,1-5.34-2.07,1.53,1.53,0,0,1-.56-1.06,1.44,1.44,0,0,1,.35-1.16,1.42,1.42,0,0,1,1.08-.6,1.51,1.51,0,0,1,1.17.36,5,5,0,0,0,3.3,1.32,3.73,3.73,0,0,0,2-.57q.54-.45.54-.77a.77.77,0,0,0-.09-.44,1,1,0,0,0-.39-.36,6.53,6.53,0,0,0-2.4-.84h0a11.17,11.17,0,0,1-2.78-.87,4.68,4.68,0,0,1-1.9-1.65,3.56,3.56,0,0,1-.51-1.89,4,4,0,0,1,1.77-3.3,6.4,6.4,0,0,1,3.71-1.11A8,8,0,0,1,301.52,166.28Z"/><path class="cls-1" d="M313.55,179.72a6.79,6.79,0,0,1-5.13-2.22,7.76,7.76,0,0,1,0-10.64,6.75,6.75,0,0,1,5.08-2.23,6.62,6.62,0,0,1,5.06,2.27,7.68,7.68,0,0,1,2.08,5.38,6.89,6.89,0,0,1-2.1,5.16A6.35,6.35,0,0,1,313.55,179.72ZM310.67,169a4.63,4.63,0,0,0-1.08,3.12,4.86,4.86,0,0,0,1.08,3.18,4.14,4.14,0,0,0,5.64,0,4.63,4.63,0,0,0,1.17-3.18,4.41,4.41,0,0,0-1.17-3.12,4.06,4.06,0,0,0-5.64,0Z"/><path class="cls-1" d="M338,173.39a6,6,0,0,1-1.87,4.4,6.12,6.12,0,0,1-4.44,1.85,6.27,6.27,0,0,1-6.25-6.24v-7.17a1.55,1.55,0,0,1,.46-1.11,1.56,1.56,0,0,1,2.25,0,1.55,1.55,0,0,1,.46,1.11v7.17a3,3,0,0,0,3.06,3.06,3.06,3.06,0,0,0,2.2-.88,3,3,0,0,0,.95-2.18v-7.17a1.58,1.58,0,0,1,.45-1.11,1.44,1.44,0,0,1,1.09-.48,1.59,1.59,0,0,1,1.14.48,1.51,1.51,0,0,1,.49,1.11Z"/><path class="cls-1" d="M347.39,178a1.47,1.47,0,0,1-.51,1.13,1.67,1.67,0,0,1-1.15.46,1.51,1.51,0,0,1-1.11-.46,1.53,1.53,0,0,1-.46-1.12V166.22a1.6,1.6,0,0,1,3.06-.66,5.84,5.84,0,0,1,3.18-.93,6.27,6.27,0,0,1,6.27,6.24V178a1.56,1.56,0,0,1-.45,1.13,1.47,1.47,0,0,1-1.09.46,1.56,1.56,0,0,1-1.12-.46,1.51,1.51,0,0,1-.48-1.12v-7.17a2.88,2.88,0,0,0-.92-2.15,3,3,0,0,0-2.19-.89,2.89,2.89,0,0,0-2.14.89,2.94,2.94,0,0,0-.87,2.15Z"/><path class="cls-1" d="M376.13,178a1.56,1.56,0,0,1-.48,1.14,1.52,1.52,0,0,1-1.11.48,1.57,1.57,0,0,1-1.07-.37,1.66,1.66,0,0,1-.55-.92,7.09,7.09,0,0,1-4.08,1.29,6.91,6.91,0,0,1-5.16-2.21,7.63,7.63,0,0,1,0-10.57,7.08,7.08,0,0,1,9.18-1v-5.64a1.56,1.56,0,0,1,.48-1.14,1.63,1.63,0,0,1,2.79,1.14Zm-7.29-1.65a3.78,3.78,0,0,0,2.83-1.25,4.16,4.16,0,0,0,1.19-3,4.24,4.24,0,0,0-1.17-3,3.85,3.85,0,0,0-5.7,0,4.24,4.24,0,0,0-1.17,3,4.16,4.16,0,0,0,1.18,3A3.78,3.78,0,0,0,368.84,176.36Z"/><path class="cls-1" d="M391.55,160.28a1.64,1.64,0,0,1,1.65-1.65,1.64,1.64,0,0,1,1.18.48,1.57,1.57,0,0,1,.5,1.17V178a1.57,1.57,0,0,1-.5,1.17,1.64,1.64,0,0,1-1.18.48,1.64,1.64,0,0,1-1.65-1.65Z"/><path class="cls-1" d="M402.08,160.25v.63a1.62,1.62,0,0,1-.46,1.17,1.52,1.52,0,0,1-1.14.48,1.64,1.64,0,0,1-1.63-1.65v-.63a1.56,1.56,0,0,1,.48-1.14,1.58,1.58,0,0,1,1.16-.48,1.55,1.55,0,0,1,1.14.46A1.57,1.57,0,0,1,402.08,160.25Zm-2.77,4.88a1.67,1.67,0,0,1,2.31,0,1.6,1.6,0,0,1,.46,1.19V178a1.57,1.57,0,0,1-.46,1.16,1.55,1.55,0,0,1-1.14.46,1.57,1.57,0,0,1-1.16-.48,1.56,1.56,0,0,1-.48-1.14v-11.7A1.6,1.6,0,0,1,399.31,165.13Z"/><path class="cls-1" d="M410.08,179.15a1.64,1.64,0,0,1-1.18.48,1.64,1.64,0,0,1-1.65-1.65v-17.7a1.64,1.64,0,0,1,1.65-1.65,1.64,1.64,0,0,1,1.18.48,1.57,1.57,0,0,1,.5,1.17v10.38l6.15-6.15a1.6,1.6,0,0,1,1.17-.48,1.65,1.65,0,0,1,1.18.48,1.57,1.57,0,0,1,.5,1.17,1.55,1.55,0,0,1-.51,1.17l-4.5,4.5,4.62,5.55a1.55,1.55,0,0,1,.18,1.79,1.5,1.5,0,0,1-1.38.94,1.58,1.58,0,0,1-1.35-.6l-4.41-5.34-1.65,1.65V178A1.57,1.57,0,0,1,410.08,179.15Z"/><path class="cls-1" d="M437.54,171.74a1.39,1.39,0,0,1-.43,1.06,1.63,1.63,0,0,1-1.16.41h-9.54a3.6,3.6,0,0,0,1,2,4.22,4.22,0,0,0,2.81,1.33,4.4,4.4,0,0,0,3.19-.73,1.57,1.57,0,0,1,1.2-.48,1.25,1.25,0,0,1,1,.39,1.34,1.34,0,0,1,0,2,7.49,7.49,0,0,1-5.29,2,7.05,7.05,0,0,1-5.25-2.21,7.59,7.59,0,0,1,0-10.57,6.83,6.83,0,0,1,5.12-2.21,7,7,0,0,1,5.05,2,7.24,7.24,0,0,1,2.24,5Zm-7.23-4.26a4.24,4.24,0,0,0-2.79,1.08,3.91,3.91,0,0,0-1.26,2.1h8.49a4.08,4.08,0,0,0-1.46-2A5.2,5.2,0,0,0,430.31,167.48Z"/><path class="cls-1" d="M454.58,160.25v.63a1.62,1.62,0,0,1-.46,1.17,1.52,1.52,0,0,1-1.14.48,1.64,1.64,0,0,1-1.63-1.65v-.63a1.56,1.56,0,0,1,.48-1.14,1.58,1.58,0,0,1,1.16-.48,1.55,1.55,0,0,1,1.14.46A1.57,1.57,0,0,1,454.58,160.25Zm-2.77,4.88a1.67,1.67,0,0,1,2.31,0,1.6,1.6,0,0,1,.46,1.19V178a1.57,1.57,0,0,1-.46,1.16,1.55,1.55,0,0,1-1.14.46,1.57,1.57,0,0,1-1.16-.48,1.56,1.56,0,0,1-.48-1.14v-11.7A1.6,1.6,0,0,1,451.81,165.13Z"/><path class="cls-1" d="M467.54,160.27a1.66,1.66,0,0,1-1.7,1.67,1.45,1.45,0,0,0-.91.18c-.08,0-.15.17-.2.51a6.89,6.89,0,0,0-.08,1v.42h.9a1.59,1.59,0,0,1,1.17.48,1.58,1.58,0,0,1,.48,1.15,1.63,1.63,0,0,1-.48,1.17,1.57,1.57,0,0,1-1.17.5h-.9V178a1.65,1.65,0,1,1-3.3,0V167.36h-.78a1.64,1.64,0,0,1-1.18-.48,1.63,1.63,0,0,1,0-2.34,1.64,1.64,0,0,1,1.18-.48h.78v-.42q0-5,4.53-5a1.58,1.58,0,0,1,1.15.49A1.6,1.6,0,0,1,467.54,160.27Z"/><path class="cls-1" d="M484.67,164.63a1.64,1.64,0,0,1,1.18.48,1.55,1.55,0,0,1,.5,1.15,1.6,1.6,0,0,1-.5,1.17,1.62,1.62,0,0,1-1.18.49h-.75v8.37a1.57,1.57,0,0,1,1.17.5,1.64,1.64,0,0,1,.48,1.19,1.64,1.64,0,0,1-1.65,1.65,3.33,3.33,0,0,1-3.33-3.33v-8.37h-.87a1.65,1.65,0,1,1,0-3.3h.87v-4.35a1.57,1.57,0,0,1,.5-1.17,1.64,1.64,0,0,1,1.18-.48,1.64,1.64,0,0,1,1.65,1.65v4.35Z"/><path class="cls-1" d="M494.44,179.15a1.67,1.67,0,0,1-2.34,0,1.57,1.57,0,0,1-.5-1.17v-17.7a1.64,1.64,0,0,1,1.65-1.65,1.64,1.64,0,0,1,1.18.48,1.57,1.57,0,0,1,.5,1.17v5.22a6.86,6.86,0,0,1,3.21-.87,6.27,6.27,0,0,1,4.62,1.94,6.35,6.35,0,0,1,1.92,4.63V178a1.65,1.65,0,1,1-3.3,0V171.2a3.09,3.09,0,0,0-.95-2.26,3.23,3.23,0,0,0-2.29-1,3.14,3.14,0,0,0-2.25,1,3.22,3.22,0,0,0-1,2.26V178A1.57,1.57,0,0,1,494.44,179.15Z"/><path class="cls-1" d="M523.49,171.74a1.39,1.39,0,0,1-.43,1.06,1.63,1.63,0,0,1-1.16.41h-9.54a3.6,3.6,0,0,0,1,2,4.22,4.22,0,0,0,2.81,1.33,4.4,4.4,0,0,0,3.19-.73,1.57,1.57,0,0,1,1.2-.48,1.25,1.25,0,0,1,1,.39,1.34,1.34,0,0,1,0,2,7.49,7.49,0,0,1-5.29,2,7.05,7.05,0,0,1-5.25-2.21,7.59,7.59,0,0,1,0-10.57,6.83,6.83,0,0,1,5.12-2.21,7,7,0,0,1,5.05,2,7.24,7.24,0,0,1,2.24,5Zm-7.23-4.26a4.24,4.24,0,0,0-2.79,1.08,3.91,3.91,0,0,0-1.26,2.1h8.49a4.08,4.08,0,0,0-1.46-2A5.2,5.2,0,0,0,516.26,167.48Z"/><path class="cls-1" d="M546.53,166.28a1.55,1.55,0,0,1,.68,1,1.67,1.67,0,0,1-.2,1.22,1.54,1.54,0,0,1-1,.67,1.52,1.52,0,0,1-1.21-.25,5.47,5.47,0,0,0-2.78-1.11,2.81,2.81,0,0,0-1.79.54c-.32.22-.48.42-.48.58a.72.72,0,0,0,.08.38,1,1,0,0,0,.31.27,5.89,5.89,0,0,0,2.19.72l0,0h0a12.73,12.73,0,0,1,2.91.9,4.23,4.23,0,0,1,2,1.65,4,4,0,0,1,.63,2.07,4.16,4.16,0,0,1-1.89,3.48,6.71,6.71,0,0,1-3.9,1.2,8.59,8.59,0,0,1-5.34-2.07,1.53,1.53,0,0,1-.56-1.06,1.44,1.44,0,0,1,.35-1.16,1.42,1.42,0,0,1,1.08-.6,1.51,1.51,0,0,1,1.17.36,5,5,0,0,0,3.3,1.32,3.73,3.73,0,0,0,2-.57q.54-.45.54-.77a.77.77,0,0,0-.09-.44,1,1,0,0,0-.39-.36,6.53,6.53,0,0,0-2.4-.84h0a11.17,11.17,0,0,1-2.78-.87,4.68,4.68,0,0,1-1.9-1.65,3.56,3.56,0,0,1-.51-1.89,4,4,0,0,1,1.77-3.3,6.4,6.4,0,0,1,3.71-1.11A8,8,0,0,1,546.53,166.28Z"/><path class="cls-1" d="M554.85,179.15a1.64,1.64,0,0,1-1.18.48A1.64,1.64,0,0,1,552,178v-17.7a1.64,1.64,0,0,1,1.65-1.65,1.64,1.64,0,0,1,1.18.48,1.57,1.57,0,0,1,.5,1.17v10.38l6.15-6.15a1.6,1.6,0,0,1,1.17-.48,1.65,1.65,0,0,1,1.18.48,1.57,1.57,0,0,1,.5,1.17,1.55,1.55,0,0,1-.51,1.17l-4.5,4.5L564,176.9a1.55,1.55,0,0,1,.18,1.79,1.5,1.5,0,0,1-1.38.94,1.58,1.58,0,0,1-1.35-.6L557,173.69l-1.65,1.65V178A1.57,1.57,0,0,1,554.85,179.15Z"/><path class="cls-1" d="M577.4,165.08a1.51,1.51,0,0,1,1.11-.45,1.58,1.58,0,0,1,1.14.46,1.51,1.51,0,0,1,.48,1.13v11.34a7.12,7.12,0,0,1-7.17,7.17,6.84,6.84,0,0,1-3.09-.75,1.44,1.44,0,0,1-.84-.89,1.68,1.68,0,0,1,.06-1.24,1.59,1.59,0,0,1,.95-.75,1.75,1.75,0,0,1,1.37.15,3.89,3.89,0,0,0,1.8.34,3.62,3.62,0,0,0,2.12-.78,3.72,3.72,0,0,0,1.39-1.94,5.64,5.64,0,0,1-2.85.72,6,6,0,0,1-4.42-1.86,6.08,6.08,0,0,1-1.85-4.44v-7.08a1.59,1.59,0,0,1,1.59-1.59,1.51,1.51,0,0,1,1.11.45,1.55,1.55,0,0,1,.45,1.14v7.08a2.91,2.91,0,0,0,.92,2.18,3.06,3.06,0,0,0,2.21.88,3,3,0,0,0,2.19-.88,2.93,2.93,0,0,0,.9-2.18v-7.08A1.55,1.55,0,0,1,577.4,165.08Z"/><path class="cls-1" d="M596.66,177.43a7.34,7.34,0,0,1,0-10.57,7.54,7.54,0,0,1,5.37-2.22,7.68,7.68,0,0,1,4.77,1.65,1.54,1.54,0,0,1,.6,1.06,1.51,1.51,0,0,1-.32,1.19,1.57,1.57,0,0,1-1,.6,1.43,1.43,0,0,1-1.16-.33,5,5,0,0,0-3-1,4.16,4.16,0,0,0-3,1.29,4.14,4.14,0,0,0,0,6,4.15,4.15,0,0,0,3,1.27,5,5,0,0,0,3-1,1.43,1.43,0,0,1,1.14-.3,1.58,1.58,0,0,1,1.07.6,1.46,1.46,0,0,1,.32,1.15,1.75,1.75,0,0,1-.6,1.1,8,8,0,0,1-4.77,1.59A7.4,7.4,0,0,1,596.66,177.43Z"/><path class="cls-1" d="M619.13,179.72A6.79,6.79,0,0,1,614,177.5a7.76,7.76,0,0,1,0-10.64,6.75,6.75,0,0,1,5.08-2.23,6.62,6.62,0,0,1,5.06,2.27,7.68,7.68,0,0,1,2.08,5.38,6.89,6.89,0,0,1-2.1,5.16A6.35,6.35,0,0,1,619.13,179.72ZM616.25,169a4.63,4.63,0,0,0-1.08,3.12,4.86,4.86,0,0,0,1.08,3.18,4.14,4.14,0,0,0,5.64,0,4.63,4.63,0,0,0,1.17-3.18,4.41,4.41,0,0,0-1.17-3.12,4.06,4.06,0,0,0-5.64,0Z"/><path class="cls-1" d="M643.61,173.39a6,6,0,0,1-1.87,4.4,6.12,6.12,0,0,1-4.44,1.85,6.27,6.27,0,0,1-6.25-6.24v-7.17a1.55,1.55,0,0,1,.46-1.11,1.56,1.56,0,0,1,2.25,0,1.55,1.55,0,0,1,.46,1.11v7.17a3,3,0,0,0,3.06,3.06,3.06,3.06,0,0,0,2.2-.88,3,3,0,0,0,.95-2.18v-7.17a1.58,1.58,0,0,1,.45-1.11,1.44,1.44,0,0,1,1.09-.48,1.59,1.59,0,0,1,1.14.48,1.51,1.51,0,0,1,.49,1.11Z"/><path class="cls-1" d="M649.94,160.28a1.64,1.64,0,0,1,1.65-1.65,1.64,1.64,0,0,1,1.18.48,1.57,1.57,0,0,1,.5,1.17V178a1.57,1.57,0,0,1-.5,1.17,1.64,1.64,0,0,1-1.18.48,1.64,1.64,0,0,1-1.65-1.65Z"/><path class="cls-1" d="M670.79,178a1.56,1.56,0,0,1-.48,1.14,1.52,1.52,0,0,1-1.11.48,1.57,1.57,0,0,1-1.07-.37,1.66,1.66,0,0,1-.55-.92,7.09,7.09,0,0,1-4.08,1.29,6.91,6.91,0,0,1-5.16-2.21,7.63,7.63,0,0,1,0-10.57,7.08,7.08,0,0,1,9.18-1v-5.64a1.56,1.56,0,0,1,.48-1.14,1.63,1.63,0,0,1,2.79,1.14Zm-7.29-1.65a3.78,3.78,0,0,0,2.83-1.25,4.16,4.16,0,0,0,1.19-3,4.24,4.24,0,0,0-1.17-3,3.85,3.85,0,0,0-5.7,0,4.24,4.24,0,0,0-1.17,3,4.16,4.16,0,0,0,1.18,3A3.78,3.78,0,0,0,663.5,176.36Z"/><path class="cls-1" d="M689.24,166.43a4.86,4.86,0,0,1,1.89-1.3,5.58,5.58,0,0,1,2.19-.48,2.08,2.08,0,0,1,1.46.46,1.47,1.47,0,0,1,.46,1.1,1.57,1.57,0,0,1-.46,1.13,1.51,1.51,0,0,1-1.12.48q-2.79,0-4.41,4.53V178a1.51,1.51,0,0,1-.48,1.13,1.6,1.6,0,0,1-1.16.46,1.55,1.55,0,0,1-1.14-.46A1.53,1.53,0,0,1,686,178V166.22a1.48,1.48,0,0,1,.46-1.11,1.58,1.58,0,0,1,1.14-.45,1.63,1.63,0,0,1,1.16.45,1.46,1.46,0,0,1,.48,1.11Z"/><path class="cls-1" d="M699.63,177.44a7.87,7.87,0,0,1,0-10.6,6.67,6.67,0,0,1,5.08-2.21,6.77,6.77,0,0,1,4,1.32,1.88,1.88,0,0,1,.57-.94,1.49,1.49,0,0,1,1-.37,1.46,1.46,0,0,1,1.08.48,1.58,1.58,0,0,1,.47,1.14V178a1.53,1.53,0,0,1-.47,1.13,1.48,1.48,0,0,1-1.08.46,1.53,1.53,0,0,1-1-.36,1.79,1.79,0,0,1-.57-.93,6.78,6.78,0,0,1-4,1.29A6.69,6.69,0,0,1,699.63,177.44Zm1.16-5.29a4.41,4.41,0,0,0,1.09,3,3.6,3.6,0,0,0,2.82,1.23,3.69,3.69,0,0,0,2.85-1.23,4.32,4.32,0,0,0,1.13-3,4.4,4.4,0,0,0-1.14-3.06,3.67,3.67,0,0,0-2.83-1.26,3.6,3.6,0,0,0-2.81,1.25A4.44,4.44,0,0,0,700.79,172.15Z"/><path class="cls-1" d="M721,160.25v.63a1.62,1.62,0,0,1-.46,1.17,1.52,1.52,0,0,1-1.14.48,1.64,1.64,0,0,1-1.63-1.65v-.63a1.56,1.56,0,0,1,.48-1.14,1.58,1.58,0,0,1,1.16-.48,1.55,1.55,0,0,1,1.14.46A1.57,1.57,0,0,1,721,160.25Zm-2.77,4.88a1.67,1.67,0,0,1,2.31,0,1.6,1.6,0,0,1,.46,1.19V178a1.57,1.57,0,0,1-.46,1.16,1.55,1.55,0,0,1-1.14.46,1.57,1.57,0,0,1-1.16-.48,1.56,1.56,0,0,1-.48-1.14v-11.7A1.6,1.6,0,0,1,718.23,165.13Z"/><path class="cls-1" d="M729.41,178a1.47,1.47,0,0,1-.51,1.13,1.67,1.67,0,0,1-1.15.46,1.51,1.51,0,0,1-1.11-.46,1.53,1.53,0,0,1-.46-1.12V166.22a1.6,1.6,0,0,1,3.06-.66,5.84,5.84,0,0,1,3.18-.93,6.27,6.27,0,0,1,6.27,6.24V178a1.56,1.56,0,0,1-.45,1.13,1.47,1.47,0,0,1-1.09.46,1.56,1.56,0,0,1-1.12-.46,1.51,1.51,0,0,1-.48-1.12v-7.17a2.88,2.88,0,0,0-.92-2.15,3,3,0,0,0-2.19-.89,2.89,2.89,0,0,0-2.14.89,2.94,2.94,0,0,0-.87,2.15Z"/><path class="cls-1" d="M754,177.44a7.87,7.87,0,0,1,0-10.6,6.67,6.67,0,0,1,5.08-2.21,6.77,6.77,0,0,1,4,1.32,1.88,1.88,0,0,1,.57-.94,1.49,1.49,0,0,1,1-.37,1.46,1.46,0,0,1,1.08.48,1.58,1.58,0,0,1,.47,1.14V178a1.53,1.53,0,0,1-.47,1.13,1.48,1.48,0,0,1-1.08.46,1.53,1.53,0,0,1-1-.36,1.79,1.79,0,0,1-.57-.93,6.78,6.78,0,0,1-4,1.29A6.69,6.69,0,0,1,754,177.44Zm1.16-5.29a4.41,4.41,0,0,0,1.09,3,3.6,3.6,0,0,0,2.82,1.23,3.69,3.69,0,0,0,2.85-1.23,4.32,4.32,0,0,0,1.13-3,4.4,4.4,0,0,0-1.14-3.06,3.67,3.67,0,0,0-2.83-1.26,3.6,3.6,0,0,0-2.81,1.25A4.44,4.44,0,0,0,755.18,172.15Z"/><path class="cls-1" d="M775.37,178a1.47,1.47,0,0,1-.51,1.13,1.67,1.67,0,0,1-1.15.46,1.51,1.51,0,0,1-1.11-.46,1.53,1.53,0,0,1-.46-1.12V166.22a1.6,1.6,0,0,1,3.06-.66,5.84,5.84,0,0,1,3.18-.93,6.27,6.27,0,0,1,6.27,6.24V178a1.56,1.56,0,0,1-.45,1.13,1.47,1.47,0,0,1-1.09.46,1.56,1.56,0,0,1-1.12-.46,1.51,1.51,0,0,1-.48-1.12v-7.17a2.88,2.88,0,0,0-.92-2.15,3,3,0,0,0-2.19-.89,2.89,2.89,0,0,0-2.14.89,2.94,2.94,0,0,0-.87,2.15Z"/><path class="cls-1" d="M799.1,165.08a1.51,1.51,0,0,1,1.11-.45,1.58,1.58,0,0,1,1.14.46,1.51,1.51,0,0,1,.48,1.13v11.34a7.12,7.12,0,0,1-7.17,7.17,6.84,6.84,0,0,1-3.09-.75,1.44,1.44,0,0,1-.84-.89,1.68,1.68,0,0,1,.06-1.24,1.59,1.59,0,0,1,.95-.75,1.75,1.75,0,0,1,1.37.15,3.89,3.89,0,0,0,1.8.34,3.62,3.62,0,0,0,2.12-.78,3.72,3.72,0,0,0,1.39-1.94,5.64,5.64,0,0,1-2.85.72,6,6,0,0,1-4.42-1.86,6.08,6.08,0,0,1-1.85-4.44v-7.08a1.59,1.59,0,0,1,1.59-1.59,1.51,1.51,0,0,1,1.11.45,1.55,1.55,0,0,1,.45,1.14v7.08a2.91,2.91,0,0,0,.92,2.18,3.06,3.06,0,0,0,2.21.88,3,3,0,0,0,2.19-.88,2.93,2.93,0,0,0,.9-2.18v-7.08A1.55,1.55,0,0,1,799.1,165.08Z"/><path class="cls-1" d="M813.23,164.63a1.64,1.64,0,0,1,1.18.48,1.55,1.55,0,0,1,.5,1.15,1.6,1.6,0,0,1-.5,1.17,1.62,1.62,0,0,1-1.18.49h-.75v8.37a1.57,1.57,0,0,1,1.17.5,1.64,1.64,0,0,1,.48,1.19,1.64,1.64,0,0,1-1.65,1.65,3.33,3.33,0,0,1-3.33-3.33v-8.37h-.87a1.65,1.65,0,1,1,0-3.3h.87v-4.35a1.57,1.57,0,0,1,.5-1.17,1.64,1.64,0,0,1,1.18-.48,1.64,1.64,0,0,1,1.65,1.65v4.35Z"/><path class="cls-1" d="M823,179.15a1.67,1.67,0,0,1-2.34,0,1.57,1.57,0,0,1-.5-1.17v-17.7a1.64,1.64,0,0,1,1.65-1.65,1.64,1.64,0,0,1,1.18.48,1.57,1.57,0,0,1,.5,1.17v5.22a6.86,6.86,0,0,1,3.21-.87,6.27,6.27,0,0,1,4.62,1.94,6.35,6.35,0,0,1,1.92,4.63V178a1.65,1.65,0,1,1-3.3,0V171.2a3.09,3.09,0,0,0-.95-2.26,3.23,3.23,0,0,0-2.29-1,3.14,3.14,0,0,0-2.25,1,3.22,3.22,0,0,0-1,2.26V178A1.57,1.57,0,0,1,823,179.15Z"/><path class="cls-1" d="M841.82,160.25v.63a1.62,1.62,0,0,1-.46,1.17,1.52,1.52,0,0,1-1.14.48,1.64,1.64,0,0,1-1.63-1.65v-.63a1.56,1.56,0,0,1,.48-1.14,1.58,1.58,0,0,1,1.16-.48,1.55,1.55,0,0,1,1.14.46A1.57,1.57,0,0,1,841.82,160.25ZM839,165.13a1.67,1.67,0,0,1,2.31,0,1.6,1.6,0,0,1,.46,1.19V178a1.57,1.57,0,0,1-.46,1.16,1.55,1.55,0,0,1-1.14.46,1.57,1.57,0,0,1-1.16-.48,1.56,1.56,0,0,1-.48-1.14v-11.7A1.6,1.6,0,0,1,839,165.13Z"/><path class="cls-1" d="M850.22,178a1.47,1.47,0,0,1-.51,1.13,1.67,1.67,0,0,1-1.15.46,1.51,1.51,0,0,1-1.11-.46A1.53,1.53,0,0,1,847,178V166.22a1.6,1.6,0,0,1,3.06-.66,5.84,5.84,0,0,1,3.18-.93,6.27,6.27,0,0,1,6.27,6.24V178a1.56,1.56,0,0,1-.45,1.13,1.47,1.47,0,0,1-1.09.46,1.56,1.56,0,0,1-1.12-.46,1.51,1.51,0,0,1-.48-1.12v-7.17a2.88,2.88,0,0,0-.92-2.15,3,3,0,0,0-2.19-.89,2.89,2.89,0,0,0-2.14.89,2.94,2.94,0,0,0-.87,2.15Z"/><path class="cls-1" d="M866.48,177.47a7.27,7.27,0,0,1-2.1-5.26,7.53,7.53,0,0,1,2.1-5.34,7,7,0,0,1,9.12-1,1.56,1.56,0,0,1,.57-.9,1.65,1.65,0,0,1,1.07-.36,1.49,1.49,0,0,1,1.08.46,1.54,1.54,0,0,1,.46,1.13V177.8a7.22,7.22,0,0,1-7.2,7.2,6.72,6.72,0,0,1-3.15-.75,1.45,1.45,0,0,1-.81-.92,1.58,1.58,0,0,1,.09-1.25,1.55,1.55,0,0,1,.92-.81,1.68,1.68,0,0,1,1.25.06,4.11,4.11,0,0,0,2,.42,3.52,3.52,0,0,0,2.28-.92,4,4,0,0,0,1.39-2.29,6.76,6.76,0,0,1-3.93,1.2A6.67,6.67,0,0,1,866.48,177.47Zm1.14-5.25a4.36,4.36,0,0,0,1.14,3,3.67,3.67,0,0,0,2.83,1.26,3.71,3.71,0,0,0,2.83-1.23,4.33,4.33,0,0,0,1.14-3.06,4.46,4.46,0,0,0-1.16-3.1,3.71,3.71,0,0,0-5.62,0A4.45,4.45,0,0,0,867.62,172.22Z"/><path class="cls-1" d="M893.8,160.48a5.83,5.83,0,0,1,1.86,4.26,6.32,6.32,0,0,1-4.86,6.31v2a1.42,1.42,0,0,1-.42,1,1.41,1.41,0,0,1-1,.42,1.46,1.46,0,0,1-1-.42,1.4,1.4,0,0,1-.43-1v-3.12s0,0,0,0,0,0,0,0a.13.13,0,0,1,0-.06,1.43,1.43,0,0,1,.43-1,1.39,1.39,0,0,1,1-.45,3.32,3.32,0,0,0,2.42-1,3.23,3.23,0,0,0,1-2.38,3.18,3.18,0,0,0-1-2.37,3.35,3.35,0,0,0-2.42-1,3.12,3.12,0,0,0-2.88,1.65,1.5,1.5,0,0,1-2,.54,1.49,1.49,0,0,1-.66-.9,1.45,1.45,0,0,1,.15-1.11,6.31,6.31,0,0,1,9.9-1.27Zm-5.5,16.11a1.43,1.43,0,0,1,1-.44,1.38,1.38,0,0,1,1,.44,1.44,1.44,0,0,1,.42,1v.54a1.42,1.42,0,0,1-.42,1.05,1.41,1.41,0,0,1-1,.42,1.46,1.46,0,0,1-1-.42,1.4,1.4,0,0,1-.43-1.05v-.54A1.41,1.41,0,0,1,888.3,176.59Z"/></g></g></svg>