<svg xmlns="http://www.w3.org/2000/svg" viewBox="0 0 750.49 446.74"><defs><style>.cls-1{fill:#fff;}</style></defs><title>logo_2lines</title><g id="Layer_2" data-name="Layer 2"><g id="WebVR_Button" data-name="WebVR Button"><g id="_Group_" data-name="&lt;Group&gt;"><path id="_Compound_Path_" data-name="&lt;Compound Path&gt;" class="cls-1" d="M218.65,81.53q0-12.22-28.3-17.53H190a90.87,90.87,0,0,1-21.71-6.75q-9.16-4.34-13.43-11.18A26.26,26.26,0,0,1,150.63,32q0-14,12.3-23a47.65,47.65,0,0,1,42.86-6.59,61.48,61.48,0,0,1,11,4.5q3.62,2.09,9.57,6a8.42,8.42,0,0,1,3.46,5.31,7.86,7.86,0,0,1-1.13,6.19,8,8,0,0,1-5.23,3.54,7.9,7.9,0,0,1-6.27-1.21A86.08,86.08,0,0,0,203.78,19a30.74,30.74,0,0,0-12.46-2.57q-10.61,0-17.37,5T167.19,32a8.2,8.2,0,0,0,1.29,4.66q4.5,7.4,24.28,11.1h.32a101.73,101.73,0,0,1,22.19,6.75q19.94,9.81,19.94,27,0,15-13.19,24.52a50.4,50.4,0,0,1-30.39,9.57q-21.07-.16-41.17-16.08a8.12,8.12,0,0,1-3-5.63,7.88,7.88,0,0,1,1.69-6.11,8.13,8.13,0,0,1,5.63-3,7.59,7.59,0,0,1,6.11,1.85q15.44,12.54,30.72,12.38,12.06,0,19.54-5.55T218.65,81.53Z"/><path id="_Compound_Path_2" data-name="&lt;Compound Path&gt;" class="cls-1" d="M307,116.27a36.4,36.4,0,0,1-27.5-11.9A40,40,0,0,1,268.26,75.9a40.1,40.1,0,0,1,11.34-28.54q11.34-12,27.26-12t27.1,12.14a41.18,41.18,0,0,1,11.18,28.87q0,16.73-11.26,27.66A34,34,0,0,1,307,116.27ZM291.58,59q-5.79,6.75-5.79,16.72a26,26,0,0,0,5.79,17,22.18,22.18,0,0,0,30.23,0,24.81,24.81,0,0,0,6.27-17A23.65,23.65,0,0,0,321.81,59q-6.92-6.11-15.12-6.11T291.58,59Z"/><path id="_Compound_Path_3" data-name="&lt;Compound Path&gt;" class="cls-1" d="M396.7,107.26a7.87,7.87,0,0,1-2.73,6,8.94,8.94,0,0,1-6.19,2.49,8.11,8.11,0,0,1-6-2.49,8.21,8.21,0,0,1-2.49-6V43.9a8.6,8.6,0,0,1,16.4-3.54,31.3,31.3,0,0,1,17-5,32.28,32.28,0,0,1,23.8,9.89,32.31,32.31,0,0,1,9.81,23.56v38.43a8.35,8.35,0,0,1-2.41,6,7.85,7.85,0,0,1-5.87,2.49,8.38,8.38,0,0,1-6-2.49,8.08,8.08,0,0,1-2.57-6V68.83a15.41,15.41,0,0,0-4.9-11.5,16.3,16.3,0,0,0-11.74-4.74,15.49,15.49,0,0,0-11.5,4.74,15.79,15.79,0,0,0-4.66,11.5Z"/><path id="_Compound_Path_4" data-name="&lt;Compound Path&gt;" class="cls-1" d="M499.57,11.9v3.38a8.67,8.67,0,0,1-2.49,6.27A8.18,8.18,0,0,1,491,24.12a8.43,8.43,0,0,1-6.19-2.57,8.52,8.52,0,0,1-2.57-6.27V11.9a8.35,8.35,0,0,1,2.57-6.11A8.44,8.44,0,0,1,491,3.22a8.31,8.31,0,0,1,6.11,2.49A8.41,8.41,0,0,1,499.57,11.9ZM484.69,38a8.94,8.94,0,0,1,12.38,0,8.61,8.61,0,0,1,2.49,6.35V107.1a8.4,8.4,0,0,1-2.49,6.19,8.3,8.3,0,0,1-6.11,2.49,8.43,8.43,0,0,1-6.19-2.57,8.34,8.34,0,0,1-2.57-6.11V44.38A8.6,8.6,0,0,1,484.69,38Z"/><path id="_Compound_Path_5" data-name="&lt;Compound Path&gt;" class="cls-1" d="M546.05,104A38.32,38.32,0,0,1,534,75.58a38.07,38.07,0,0,1,12.06-28.3,40.44,40.44,0,0,1,28.79-11.9,41.16,41.16,0,0,1,25.57,8.84,8.26,8.26,0,0,1,3.22,5.71,8.09,8.09,0,0,1-1.69,6.35,8.43,8.43,0,0,1-5.63,3.22,7.68,7.68,0,0,1-6.19-1.77,26.54,26.54,0,0,0-16-5.15q-8.93,0-16,6.92a22.18,22.18,0,0,0-.08,32.4,22.26,22.26,0,0,0,16,6.83,26.65,26.65,0,0,0,16.08-5.15A7.65,7.65,0,0,1,596.23,92a8.5,8.5,0,0,1,5.71,3.22,7.84,7.84,0,0,1,1.69,6.19,9.36,9.36,0,0,1-3.22,5.87,43.08,43.08,0,0,1-25.57,8.52A39.69,39.69,0,0,1,546.05,104Z"/><path id="_Compound_Path_6" data-name="&lt;Compound Path&gt;" class="cls-1" d="M93,226.36a44.87,44.87,0,0,1-13.59,32.81,44.66,44.66,0,0,1-32.89,13.67,44.79,44.79,0,0,1-32.89-13.59A44.78,44.78,0,0,1,0,226.36V169.11a8.53,8.53,0,0,1,2.57-6.27,8.53,8.53,0,0,1,6.27-2.57,8.81,8.81,0,0,1,6.35,2.57,8.41,8.41,0,0,1,2.65,6.27v57.25a27.67,27.67,0,0,0,8.36,20.18A27.46,27.46,0,0,0,46.47,255a27.59,27.59,0,0,0,20.26-8.36,27.6,27.6,0,0,0,8.36-20.26V169.11a8.41,8.41,0,0,1,2.65-6.27,8.81,8.81,0,0,1,6.35-2.57A8.79,8.79,0,0,1,93,169.11Z"/><path id="_Compound_Path_7" data-name="&lt;Compound Path&gt;" class="cls-1" d="M137.49,272.83l-1.61-.16a9.59,9.59,0,0,1-5-3.06,7.89,7.89,0,0,1-1.93-5.31v-63.2a8.4,8.4,0,0,1,2.49-6.19,8.22,8.22,0,0,1,6-2.49q5.63,0,7.72,4.82a33.43,33.43,0,0,1,17.21-4.82q15.44,0,25.25,11.1A30.51,30.51,0,0,1,212,192.42q14.79,0,24.61,9.89a32.68,32.68,0,0,1,9.81,23.88v38.11a8.51,8.51,0,0,1-8.52,8.52,8.47,8.47,0,0,1-6.11-2.49,8.08,8.08,0,0,1-2.57-6V226.2a16,16,0,0,0-4.83-11.74,15.7,15.7,0,0,0-11.5-4.82,16,16,0,0,0-11.5,4.66,16.42,16.42,0,0,0-5.15,11.42v38.6a8.22,8.22,0,0,1-2.49,6,8.12,8.12,0,0,1-6,2.49,8.52,8.52,0,0,1-6.11-2.57,8.05,8.05,0,0,1-2.65-5.95v-38.6a16.62,16.62,0,0,0-16.48-16.08,15.7,15.7,0,0,0-11.5,4.82,16,16,0,0,0-4.82,11.74v38.11l-.16,1.13v.48l-.48,1v.8A8.46,8.46,0,0,1,137.49,272.83Z"/><path id="_Compound_Path_8" data-name="&lt;Compound Path&gt;" class="cls-1" d="M281.9,264.15v-95.2a8.35,8.35,0,0,1,2.57-6.11,8.74,8.74,0,0,1,12.38,0,8.36,8.36,0,0,1,2.57,6.11v30.23a38,38,0,0,1,49.21,5.15,40.89,40.89,0,0,1,0,56.69A37,37,0,0,1,321,272.83a38,38,0,0,1-21.87-6.92,8.91,8.91,0,0,1-3,4.9,8.43,8.43,0,0,1-5.71,2,8.16,8.16,0,0,1-6-2.57A8.34,8.34,0,0,1,281.9,264.15Zm54.35-47.44a20.65,20.65,0,0,0-30.55,0,22.73,22.73,0,0,0-6.27,16,22.28,22.28,0,0,0,6.35,15.92,20.64,20.64,0,0,0,30.39,0,22.29,22.29,0,0,0,6.35-15.92A22.73,22.73,0,0,0,336.26,216.71Z"/><path id="_Compound_Path_9" data-name="&lt;Compound Path&gt;" class="cls-1" d="M412.28,202.07a26.05,26.05,0,0,1,10.13-7,29.9,29.9,0,0,1,11.74-2.57q5.31.08,7.8,2.49a7.87,7.87,0,0,1,2.49,5.87,8.39,8.39,0,0,1-2.49,6,8.09,8.09,0,0,1-6,2.57q-15,0-23.64,24.28v30.55a8.09,8.09,0,0,1-2.57,6,8.57,8.57,0,0,1-6.19,2.49,8.3,8.3,0,0,1-6.11-2.49,8.21,8.21,0,0,1-2.49-6V200.95A8,8,0,0,1,397.4,195a8.45,8.45,0,0,1,6.11-2.41,8.73,8.73,0,0,1,6.19,2.41,7.84,7.84,0,0,1,2.57,5.95Z"/><path id="_Compound_Path_10" data-name="&lt;Compound Path&gt;" class="cls-1" d="M537.42,230.54a7.44,7.44,0,0,1-2.33,5.71,8.73,8.73,0,0,1-6.19,2.17H477.75q1.45,6.92,5.47,10.61,5.15,6,15,7.16t17.13-3.94a8.4,8.4,0,0,1,6.43-2.57q4,0,5.63,2.09,4.5,5,0,10.45-11.58,10.61-28.38,10.53t-28.14-11.82a40.68,40.68,0,0,1,0-56.69,36.6,36.6,0,0,1,27.42-11.82q16.08,0,27.1,10.53t12,26.78ZM498.66,207.7q-9.33.48-15,5.79t-6.75,11.26h45.51q-1.45-5.63-7.8-10.94T498.66,207.7Z"/><path id="_Compound_Path_11" data-name="&lt;Compound Path&gt;" class="cls-1" d="M570,169.11a8.79,8.79,0,0,1,8.84-8.84,8.81,8.81,0,0,1,6.35,2.57,8.41,8.41,0,0,1,2.65,6.27V264a8.4,8.4,0,0,1-2.65,6.27,8.8,8.8,0,0,1-6.35,2.57A8.79,8.79,0,0,1,570,264Z"/><path id="_Compound_Path_12" data-name="&lt;Compound Path&gt;" class="cls-1" d="M623.56,169.11a8.79,8.79,0,0,1,8.84-8.84,8.81,8.81,0,0,1,6.35,2.57,8.41,8.41,0,0,1,2.65,6.27V264a8.4,8.4,0,0,1-2.65,6.27,8.8,8.8,0,0,1-6.35,2.57,8.79,8.79,0,0,1-8.84-8.84Z"/><path id="_Compound_Path_13" data-name="&lt;Compound Path&gt;" class="cls-1" d="M685,261.09a42.18,42.18,0,0,1,0-56.85,35.76,35.76,0,0,1,27.26-11.82,36.27,36.27,0,0,1,21.39,7.08,10.06,10.06,0,0,1,3.05-5.07,8,8,0,0,1,5.55-2A7.84,7.84,0,0,1,748,195a8.49,8.49,0,0,1,2.49,6.11v63.2a8.22,8.22,0,0,1-2.49,6,7.94,7.94,0,0,1-5.79,2.49,8.23,8.23,0,0,1-5.55-1.93,9.59,9.59,0,0,1-3.05-5,36.35,36.35,0,0,1-21.39,6.92A35.87,35.87,0,0,1,685,261.09Zm6.19-28.38A23.64,23.64,0,0,0,697,249a19.3,19.3,0,0,0,15.12,6.59A19.8,19.8,0,0,0,727.42,249a23.17,23.17,0,0,0,6-16.24,23.58,23.58,0,0,0-6.11-16.4,19.67,19.67,0,0,0-15.2-6.75,19.28,19.28,0,0,0-15,6.67A23.76,23.76,0,0,0,691.15,232.71Z"/></g><path class="cls-1" d="M56,377.24l-.36.27h0a1,1,0,0,0-.4.13H55a2.06,2.06,0,0,1-.85,0H54l-.31-.11-.16-.07a1.56,1.56,0,0,1-.34-.23h0a2.48,2.48,0,0,1-.36-.34l-.27-.29v0a.7.7,0,0,1-.11-.2.75.75,0,0,0-.11-.2L41.26,349.92a2.5,2.5,0,0,1,0-1.89,2.24,2.24,0,0,1,1.33-1.31,2.32,2.32,0,0,1,1.87,0A2.24,2.24,0,0,1,45.8,348l8.82,20.83,5.81-13.81a2.31,2.31,0,0,1,2.32-1.53,2.39,2.39,0,0,1,2.36,1.53l5.81,13.81L79.69,348A2.4,2.4,0,0,1,81,346.71a2.44,2.44,0,0,1,1.89,0,2.45,2.45,0,0,1,1.3,3.22l-11,26.23a1.49,1.49,0,0,1-.5.72.34.34,0,0,1,0,.13,1.2,1.2,0,0,0-.31.23h0l-.41.27h0l-.09,0-.31.11h-.09a2.06,2.06,0,0,1-.85,0h-.13l-.31-.11-.16,0a.85.85,0,0,1-.34-.25h0a1.65,1.65,0,0,1-.58-.63.64.64,0,0,1-.27-.45l-5.9-13.95-5.9,13.95a3.42,3.42,0,0,1-.18.4l-.31.32a.35.35,0,0,1,0,.13,1.28,1.28,0,0,0-.27.23Z"/><path class="cls-1" d="M96.09,377a2.5,2.5,0,0,1-3.51,0,2.35,2.35,0,0,1-.74-1.75V348.66a2.46,2.46,0,0,1,2.48-2.48,2.47,2.47,0,0,1,1.78.72,2.35,2.35,0,0,1,.74,1.76v7.83a10.3,10.3,0,0,1,4.81-1.31,9.41,9.41,0,0,1,6.93,2.9,9.52,9.52,0,0,1,2.88,7v10.17a2.48,2.48,0,1,1-5,0V365a4.63,4.63,0,0,0-1.42-3.4,4.85,4.85,0,0,0-3.44-1.46,4.72,4.72,0,0,0-3.37,1.46,4.83,4.83,0,0,0-1.44,3.4v10.17A2.35,2.35,0,0,1,96.09,377Z"/><path class="cls-1" d="M120.12,374.4a11.8,11.8,0,0,1,0-15.91,10,10,0,0,1,7.63-3.31,10.15,10.15,0,0,1,6,2,2.81,2.81,0,0,1,.85-1.42,2.25,2.25,0,0,1,1.55-.56,2.19,2.19,0,0,1,1.62.72,2.38,2.38,0,0,1,.7,1.71V375.3a2.3,2.3,0,0,1-.7,1.69,2.22,2.22,0,0,1-1.62.7,2.3,2.3,0,0,1-1.55-.54,2.68,2.68,0,0,1-.85-1.39,10.17,10.17,0,0,1-6,1.93A10,10,0,0,1,120.12,374.4Zm1.73-7.94a6.62,6.62,0,0,0,1.64,4.57,5.4,5.4,0,0,0,4.23,1.85A5.54,5.54,0,0,0,132,371a6.49,6.49,0,0,0,1.69-4.55,6.6,6.6,0,0,0-1.71-4.59,5.5,5.5,0,0,0-4.25-1.89,5.4,5.4,0,0,0-4.21,1.87A6.65,6.65,0,0,0,121.85,366.46Z"/><path class="cls-1" d="M154.88,355.19a2.47,2.47,0,0,1,1.78.72,2.33,2.33,0,0,1,.74,1.73,2.4,2.4,0,0,1-.74,1.76,2.43,2.43,0,0,1-1.78.74h-1.12v12.55a2.35,2.35,0,0,1,1.75.74,2.46,2.46,0,0,1,.72,1.78,2.46,2.46,0,0,1-2.48,2.47,5,5,0,0,1-5-5V360.14h-1.3a2.48,2.48,0,1,1,0-5h1.3v-6.52a2.35,2.35,0,0,1,.74-1.76,2.46,2.46,0,0,1,1.78-.72,2.46,2.46,0,0,1,2.48,2.48v6.52Z"/><path class="cls-1" d="M189.26,376.65a4.45,4.45,0,0,1-1,.85h-.09a.43.43,0,0,0-.31.13h-.09a2,2,0,0,1-.47,0,1.46,1.46,0,0,1-.43,0h-.14a2.35,2.35,0,0,0-.45-.18c-.24-.06-.36-.15-.36-.27l-.18-.13q-.41-.36-.41-.45a.73.73,0,0,1-.11-.18.77.77,0,0,0-.11-.18l-7.38-17.46a2.16,2.16,0,0,1,0-1.8,2.35,2.35,0,0,1,1.26-1.28,2.16,2.16,0,0,1,1.78,0A2.25,2.25,0,0,1,182,357l5.31,12.1,3.15-7.51a2.25,2.25,0,0,1,2.23-1.44,2.16,2.16,0,0,1,2.18,1.44l3.2,7.51,5.31-12.1a2.09,2.09,0,0,1,1.24-1.33,2.27,2.27,0,0,1,1.82,0,2.34,2.34,0,0,1,1.28,1.28,2.16,2.16,0,0,1,0,1.8l-7.43,17.46-.18.36,0,0a1.47,1.47,0,0,1-.59.54s0,0,0,0l-.18.11a1,1,0,0,1-.23.13l-.11,0-.32.11h-.09a2.06,2.06,0,0,1-.85,0h-.09a.73.73,0,0,0-.31-.09l0,0h0a2.32,2.32,0,0,1-.4-.27v0l-.27-.22c-.12,0-.23-.1-.31-.31a0,0,0,0,1,0,0l-3.47-8.14-3.19,7.79q0,.09-.23.36Z"/><path class="cls-1" d="M227.33,377.82a10.19,10.19,0,0,1-7.7-3.33,11.64,11.64,0,0,1,0-16,10.13,10.13,0,0,1,7.63-3.35,9.93,9.93,0,0,1,7.58,3.4,11.53,11.53,0,0,1,3.13,8.08,10.33,10.33,0,0,1-3.15,7.74A9.52,9.52,0,0,1,227.33,377.82Zm-4.32-16a6.94,6.94,0,0,0-1.62,4.68,7.29,7.29,0,0,0,1.62,4.77,6.21,6.21,0,0,0,8.46,0,6.94,6.94,0,0,0,1.76-4.77,6.62,6.62,0,0,0-1.76-4.68,6.09,6.09,0,0,0-8.46,0Z"/><path class="cls-1" d="M264,368.33a8.93,8.93,0,0,1-2.81,6.59,9.17,9.17,0,0,1-6.66,2.77,9.41,9.41,0,0,1-9.38-9.36V357.57a2.32,2.32,0,0,1,.7-1.67,2.34,2.34,0,0,1,3.38,0,2.32,2.32,0,0,1,.7,1.67v10.75a4.53,4.53,0,0,0,4.59,4.59,4.59,4.59,0,0,0,3.31-1.33,4.52,4.52,0,0,0,1.42-3.26V357.57a2.36,2.36,0,0,1,.68-1.67,2.17,2.17,0,0,1,1.64-.72,2.39,2.39,0,0,1,1.71.72,2.25,2.25,0,0,1,.74,1.67Z"/><path class="cls-1" d="M273.54,348.66a2.46,2.46,0,0,1,2.48-2.48,2.47,2.47,0,0,1,1.78.72,2.35,2.35,0,0,1,.74,1.76v26.55a2.35,2.35,0,0,1-.74,1.75,2.46,2.46,0,0,1-1.78.72,2.46,2.46,0,0,1-2.48-2.47Z"/><path class="cls-1" d="M304.82,375.26a2.34,2.34,0,0,1-.72,1.71,2.29,2.29,0,0,1-1.67.72,2.36,2.36,0,0,1-1.6-.56,2.48,2.48,0,0,1-.83-1.37,10.65,10.65,0,0,1-6.12,1.93,10.36,10.36,0,0,1-7.74-3.31,11.44,11.44,0,0,1,0-15.86,10.62,10.62,0,0,1,13.77-1.44v-8.46a2.34,2.34,0,0,1,.72-1.71,2.44,2.44,0,0,1,3.47,0,2.34,2.34,0,0,1,.72,1.71Zm-10.94-2.48a5.67,5.67,0,0,0,4.25-1.87,6.24,6.24,0,0,0,1.78-4.46,6.36,6.36,0,0,0-1.75-4.48,5.78,5.78,0,0,0-8.55,0,6.36,6.36,0,0,0-1.75,4.48,6.24,6.24,0,0,0,1.78,4.46A5.67,5.67,0,0,0,293.88,372.78Z"/><path class="cls-1" d="M332.54,348.62v.94a2.43,2.43,0,0,1-.7,1.75,2.29,2.29,0,0,1-1.71.72,2.36,2.36,0,0,1-1.73-.72,2.38,2.38,0,0,1-.72-1.75v-.94a2.33,2.33,0,0,1,.72-1.71,2.36,2.36,0,0,1,1.73-.72,2.33,2.33,0,0,1,1.71.7A2.35,2.35,0,0,1,332.54,348.62Zm-4.16,7.31a2.5,2.5,0,0,1,3.46,0,2.41,2.41,0,0,1,.7,1.78v17.55a2.35,2.35,0,0,1-.7,1.73,2.32,2.32,0,0,1-1.71.7,2.36,2.36,0,0,1-1.73-.72,2.33,2.33,0,0,1-.72-1.71V357.71A2.41,2.41,0,0,1,328.37,355.93Z"/><path class="cls-1" d="M347.88,355.19a2.47,2.47,0,0,1,1.78.72,2.33,2.33,0,0,1,.74,1.73,2.4,2.4,0,0,1-.74,1.76,2.43,2.43,0,0,1-1.78.74h-1.12v12.55a2.35,2.35,0,0,1,1.75.74,2.46,2.46,0,0,1,.72,1.78,2.46,2.46,0,0,1-2.48,2.47,5,5,0,0,1-5-5V360.14h-1.3a2.48,2.48,0,1,1,0-5h1.3v-6.52a2.35,2.35,0,0,1,.74-1.76,2.46,2.46,0,0,1,1.78-.72,2.46,2.46,0,0,1,2.48,2.48v6.52Z"/><path class="cls-1" d="M385.68,357.66a2.31,2.31,0,0,1,1,1.51,2.5,2.5,0,0,1-.29,1.82,2.31,2.31,0,0,1-1.51,1,2.28,2.28,0,0,1-1.82-.38,8.19,8.19,0,0,0-4.16-1.67,4.21,4.21,0,0,0-2.68.81q-.72.5-.72.88a1.08,1.08,0,0,0,.11.56,1.48,1.48,0,0,0,.47.4,8.83,8.83,0,0,0,3.29,1.08l0,0h0a19.1,19.1,0,0,1,4.37,1.35,6.34,6.34,0,0,1,2.92,2.47,6,6,0,0,1,.95,3.11,6.24,6.24,0,0,1-2.84,5.22,10.07,10.07,0,0,1-5.85,1.8,12.89,12.89,0,0,1-8-3.1,2.29,2.29,0,0,1-.83-1.6,2.43,2.43,0,0,1,2.14-2.63,2.26,2.26,0,0,1,1.75.54,7.48,7.48,0,0,0,5,2,5.6,5.6,0,0,0,3.06-.86q.81-.68.81-1.15a1.14,1.14,0,0,0-.13-.65,1.48,1.48,0,0,0-.58-.54,9.79,9.79,0,0,0-3.6-1.26h0a16.76,16.76,0,0,1-4.16-1.31,7,7,0,0,1-2.86-2.48,5.35,5.35,0,0,1-.77-2.83,6,6,0,0,1,2.66-5,9.6,9.6,0,0,1,5.56-1.67A12.08,12.08,0,0,1,385.68,357.66Z"/><path class="cls-1" d="M403.73,377.82a10.19,10.19,0,0,1-7.7-3.33,11.64,11.64,0,0,1,0-16,10.13,10.13,0,0,1,7.63-3.35,9.93,9.93,0,0,1,7.58,3.4,11.53,11.53,0,0,1,3.13,8.08,10.33,10.33,0,0,1-3.15,7.74A9.52,9.52,0,0,1,403.73,377.82Zm-4.32-16a6.94,6.94,0,0,0-1.62,4.68,7.29,7.29,0,0,0,1.62,4.77,6.21,6.21,0,0,0,8.46,0,6.94,6.94,0,0,0,1.76-4.77,6.62,6.62,0,0,0-1.76-4.68,6.09,6.09,0,0,0-8.46,0Z"/><path class="cls-1" d="M440.44,368.33a8.93,8.93,0,0,1-2.81,6.59,9.17,9.17,0,0,1-6.66,2.77,9.41,9.41,0,0,1-9.38-9.36V357.57a2.32,2.32,0,0,1,.7-1.67,2.34,2.34,0,0,1,3.38,0,2.32,2.32,0,0,1,.7,1.67v10.75a4.53,4.53,0,0,0,4.59,4.59,4.59,4.59,0,0,0,3.31-1.33,4.52,4.52,0,0,0,1.42-3.26V357.57a2.36,2.36,0,0,1,.68-1.67,2.17,2.17,0,0,1,1.64-.72,2.39,2.39,0,0,1,1.71.72,2.25,2.25,0,0,1,.74,1.67Z"/><path class="cls-1" d="M454.48,375.3a2.2,2.2,0,0,1-.77,1.69,2.5,2.5,0,0,1-1.73.7,2.27,2.27,0,0,1-1.67-.7,2.3,2.3,0,0,1-.7-1.69V357.57a2.41,2.41,0,0,1,4.59-1,8.76,8.76,0,0,1,4.77-1.4,9.41,9.41,0,0,1,9.41,9.36V375.3a2.34,2.34,0,0,1-.68,1.69,2.2,2.2,0,0,1-1.64.7,2.34,2.34,0,0,1-1.69-.7,2.26,2.26,0,0,1-.72-1.69V364.55a4.31,4.31,0,0,0-1.37-3.22A4.56,4.56,0,0,0,459,360a4.33,4.33,0,0,0-3.22,1.33,4.42,4.42,0,0,0-1.31,3.22Z"/><path class="cls-1" d="M497.59,375.26a2.34,2.34,0,0,1-.72,1.71,2.29,2.29,0,0,1-1.67.72,2.36,2.36,0,0,1-1.6-.56,2.48,2.48,0,0,1-.83-1.37,10.65,10.65,0,0,1-6.12,1.93,10.36,10.36,0,0,1-7.74-3.31,11.44,11.44,0,0,1,0-15.86,10.62,10.62,0,0,1,13.77-1.44v-8.46a2.34,2.34,0,0,1,.72-1.71,2.44,2.44,0,0,1,3.47,0,2.34,2.34,0,0,1,.72,1.71Zm-10.94-2.48a5.67,5.67,0,0,0,4.25-1.87,6.24,6.24,0,0,0,1.78-4.46,6.36,6.36,0,0,0-1.75-4.48,5.78,5.78,0,0,0-8.55,0,6.36,6.36,0,0,0-1.75,4.48,6.24,6.24,0,0,0,1.78,4.46A5.67,5.67,0,0,0,486.66,372.78Z"/><path class="cls-1" d="M520.72,348.66a2.46,2.46,0,0,1,2.48-2.48,2.47,2.47,0,0,1,1.78.72,2.35,2.35,0,0,1,.74,1.76v26.55A2.35,2.35,0,0,1,525,377a2.46,2.46,0,0,1-1.78.72,2.46,2.46,0,0,1-2.48-2.47Z"/><path class="cls-1" d="M536.52,348.62v.94a2.43,2.43,0,0,1-.7,1.75,2.29,2.29,0,0,1-1.71.72,2.36,2.36,0,0,1-1.73-.72,2.38,2.38,0,0,1-.72-1.75v-.94a2.33,2.33,0,0,1,.72-1.71,2.36,2.36,0,0,1,1.73-.72,2.33,2.33,0,0,1,1.71.7A2.35,2.35,0,0,1,536.52,348.62Zm-4.16,7.31a2.5,2.5,0,0,1,3.46,0,2.41,2.41,0,0,1,.7,1.78v17.55a2.35,2.35,0,0,1-.7,1.73,2.32,2.32,0,0,1-1.71.7,2.36,2.36,0,0,1-1.73-.72,2.33,2.33,0,0,1-.72-1.71V357.71A2.41,2.41,0,0,1,532.36,355.93Z"/><path class="cls-1" d="M548.51,377a2.46,2.46,0,0,1-1.78.72,2.46,2.46,0,0,1-2.48-2.47V348.66a2.46,2.46,0,0,1,2.48-2.48,2.47,2.47,0,0,1,1.78.72,2.35,2.35,0,0,1,.74,1.76v15.57l9.22-9.22a2.39,2.39,0,0,1,1.76-.72A2.47,2.47,0,0,1,562,355a2.35,2.35,0,0,1,.74,1.75,2.32,2.32,0,0,1-.77,1.75l-6.75,6.75,6.93,8.33a2.33,2.33,0,0,1,.27,2.68,2.25,2.25,0,0,1-2.07,1.42,2.37,2.37,0,0,1-2-.9l-6.62-8-2.47,2.48v4A2.35,2.35,0,0,1,548.51,377Z"/><path class="cls-1" d="M589.71,365.85a2.08,2.08,0,0,1-.65,1.6,2.44,2.44,0,0,1-1.73.61H573a5.4,5.4,0,0,0,1.53,3,6.33,6.33,0,0,0,4.21,2,6.6,6.6,0,0,0,4.79-1.1,2.35,2.35,0,0,1,1.8-.72,1.88,1.88,0,0,1,1.58.58,2,2,0,0,1,0,2.92,11.24,11.24,0,0,1-7.94,2.95,10.58,10.58,0,0,1-7.87-3.31,11.38,11.38,0,0,1,0-15.86,10.24,10.24,0,0,1,7.67-3.31,10.56,10.56,0,0,1,7.58,2.95,10.86,10.86,0,0,1,3.35,7.49Zm-10.85-6.39a6.35,6.35,0,0,0-4.19,1.62,5.87,5.87,0,0,0-1.89,3.15h12.73a6.13,6.13,0,0,0-2.18-3.06A7.8,7.8,0,0,0,578.86,359.46Z"/><path class="cls-1" d="M615.27,348.62v.94a2.43,2.43,0,0,1-.7,1.75,2.29,2.29,0,0,1-1.71.72,2.36,2.36,0,0,1-1.73-.72,2.38,2.38,0,0,1-.72-1.75v-.94a2.33,2.33,0,0,1,.72-1.71,2.36,2.36,0,0,1,1.73-.72,2.33,2.33,0,0,1,1.71.7A2.35,2.35,0,0,1,615.27,348.62Zm-4.16,7.31a2.5,2.5,0,0,1,3.46,0,2.41,2.41,0,0,1,.7,1.78v17.55a2.35,2.35,0,0,1-.7,1.73,2.32,2.32,0,0,1-1.71.7,2.36,2.36,0,0,1-1.73-.72,2.33,2.33,0,0,1-.72-1.71V357.71A2.41,2.41,0,0,1,611.1,355.93Z"/><path class="cls-1" d="M634.71,348.64a2.5,2.5,0,0,1-2.54,2.5,2.18,2.18,0,0,0-1.37.27q-.18,0-.29.77a10.41,10.41,0,0,0-.11,1.53v.63h1.35a2.39,2.39,0,0,1,1.75.72,2.36,2.36,0,0,1,.72,1.73,2.44,2.44,0,0,1-.72,1.75,2.35,2.35,0,0,1-1.75.74h-1.35v15.89a2.47,2.47,0,1,1-4.95,0V359.28h-1.17a2.46,2.46,0,0,1-1.78-.72,2.44,2.44,0,0,1,0-3.51,2.46,2.46,0,0,1,1.78-.72h1.17v-.63q0-7.56,6.79-7.56a2.54,2.54,0,0,1,2.47,2.5Z"/><path class="cls-1" d="M660.4,355.19a2.47,2.47,0,0,1,1.78.72,2.33,2.33,0,0,1,.74,1.73,2.4,2.4,0,0,1-.74,1.76,2.43,2.43,0,0,1-1.78.74h-1.12v12.55a2.35,2.35,0,0,1,1.75.74,2.46,2.46,0,0,1,.72,1.78,2.46,2.46,0,0,1-2.48,2.47,5,5,0,0,1-5-5V360.14H653a2.48,2.48,0,1,1,0-5h1.3v-6.52a2.35,2.35,0,0,1,.74-1.76,2.46,2.46,0,0,1,1.78-.72,2.46,2.46,0,0,1,2.48,2.48v6.52Z"/><path class="cls-1" d="M675,377a2.5,2.5,0,0,1-3.51,0,2.35,2.35,0,0,1-.74-1.75V348.66a2.46,2.46,0,0,1,2.48-2.48,2.47,2.47,0,0,1,1.78.72,2.35,2.35,0,0,1,.74,1.76v7.83a10.3,10.3,0,0,1,4.81-1.31,9.41,9.41,0,0,1,6.93,2.9,9.52,9.52,0,0,1,2.88,7v10.17a2.48,2.48,0,1,1-5,0V365a4.63,4.63,0,0,0-1.42-3.4,4.85,4.85,0,0,0-3.44-1.46,4.72,4.72,0,0,0-3.37,1.46,4.83,4.83,0,0,0-1.44,3.4v10.17A2.35,2.35,0,0,1,675,377Z"/><path class="cls-1" d="M718.63,365.85a2.08,2.08,0,0,1-.65,1.6,2.44,2.44,0,0,1-1.73.61H701.94a5.4,5.4,0,0,0,1.53,3,6.33,6.33,0,0,0,4.21,2,6.6,6.6,0,0,0,4.79-1.1,2.35,2.35,0,0,1,1.8-.72,1.88,1.88,0,0,1,1.58.58,2,2,0,0,1,0,2.92,11.24,11.24,0,0,1-7.94,2.95,10.58,10.58,0,0,1-7.87-3.31,11.38,11.38,0,0,1,0-15.86,10.24,10.24,0,0,1,7.67-3.31,10.56,10.56,0,0,1,7.58,2.95,10.86,10.86,0,0,1,3.35,7.49Zm-10.85-6.39a6.35,6.35,0,0,0-4.19,1.62,5.87,5.87,0,0,0-1.89,3.15h12.73a6.13,6.13,0,0,0-2.18-3.06A7.8,7.8,0,0,0,707.78,359.46Z"/><path class="cls-1" d="M125,418.66a2.31,2.31,0,0,1,1,1.51,2.5,2.5,0,0,1-.29,1.82,2.31,2.31,0,0,1-1.51,1,2.28,2.28,0,0,1-1.82-.38A8.19,8.19,0,0,0,118.2,421a4.21,4.21,0,0,0-2.68.81q-.72.5-.72.88a1.08,1.08,0,0,0,.11.56,1.48,1.48,0,0,0,.47.4,8.83,8.83,0,0,0,3.29,1.08l0,0h0a19.1,19.1,0,0,1,4.37,1.35,6.34,6.34,0,0,1,2.92,2.47,6,6,0,0,1,.95,3.11,6.24,6.24,0,0,1-2.84,5.22,10.07,10.07,0,0,1-5.85,1.8,12.89,12.89,0,0,1-8-3.1,2.29,2.29,0,0,1-.83-1.6,2.43,2.43,0,0,1,2.14-2.63,2.26,2.26,0,0,1,1.75.54,7.48,7.48,0,0,0,5,2,5.6,5.6,0,0,0,3.06-.86q.81-.68.81-1.15a1.14,1.14,0,0,0-.13-.65,1.48,1.48,0,0,0-.58-.54,9.79,9.79,0,0,0-3.6-1.26h0a16.76,16.76,0,0,1-4.16-1.31,7,7,0,0,1-2.86-2.48,5.35,5.35,0,0,1-.77-2.83,6,6,0,0,1,2.66-5,9.6,9.6,0,0,1,5.56-1.67A12.08,12.08,0,0,1,125,418.66Z"/><path class="cls-1" d="M137.46,438a2.46,2.46,0,0,1-1.78.72,2.46,2.46,0,0,1-2.48-2.47V409.66a2.46,2.46,0,0,1,2.48-2.48,2.47,2.47,0,0,1,1.78.72,2.35,2.35,0,0,1,.74,1.76v15.57l9.22-9.22a2.39,2.39,0,0,1,1.76-.72A2.47,2.47,0,0,1,151,416a2.35,2.35,0,0,1,.74,1.75,2.32,2.32,0,0,1-.77,1.75l-6.75,6.75,6.93,8.33a2.33,2.33,0,0,1,.27,2.68,2.25,2.25,0,0,1-2.07,1.42,2.37,2.37,0,0,1-2-.9l-6.62-8-2.47,2.48v4A2.35,2.35,0,0,1,137.46,438Z"/><path class="cls-1" d="M171.28,416.86a2.26,2.26,0,0,1,1.67-.68,2.38,2.38,0,0,1,1.71.7,2.27,2.27,0,0,1,.72,1.69v17a10.68,10.68,0,0,1-10.75,10.75,10.26,10.26,0,0,1-4.64-1.12,2.16,2.16,0,0,1-1.26-1.33,2.52,2.52,0,0,1,.09-1.87,2.39,2.39,0,0,1,1.42-1.12,2.63,2.63,0,0,1,2,.23,5.83,5.83,0,0,0,2.7.52,5.42,5.42,0,0,0,3.17-1.17,5.59,5.59,0,0,0,2.09-2.9,8.46,8.46,0,0,1-4.27,1.08,9,9,0,0,1-6.64-2.79,9.13,9.13,0,0,1-2.77-6.66V418.57a2.38,2.38,0,0,1,2.39-2.39,2.26,2.26,0,0,1,1.67.68,2.32,2.32,0,0,1,.67,1.71v10.62a4.36,4.36,0,0,0,1.37,3.26,4.58,4.58,0,0,0,3.31,1.33,4.51,4.51,0,0,0,3.28-1.33,4.39,4.39,0,0,0,1.35-3.26V418.57A2.32,2.32,0,0,1,171.28,416.86Z"/><path class="cls-1" d="M200.17,435.38a11,11,0,0,1,0-15.86,11.31,11.31,0,0,1,8.06-3.33,11.52,11.52,0,0,1,7.15,2.48,2.31,2.31,0,0,1,.9,1.6,2.26,2.26,0,0,1-.47,1.78,2.36,2.36,0,0,1-1.58.9,2.15,2.15,0,0,1-1.73-.5A7.43,7.43,0,0,0,208,421a6.25,6.25,0,0,0-4.48,1.93,6.2,6.2,0,0,0,0,9.07,6.23,6.23,0,0,0,4.48,1.91,7.45,7.45,0,0,0,4.5-1.44,2.14,2.14,0,0,1,1.71-.45,2.38,2.38,0,0,1,1.6.9,2.19,2.19,0,0,1,.47,1.73,2.62,2.62,0,0,1-.9,1.64,12.05,12.05,0,0,1-7.15,2.38A11.11,11.11,0,0,1,200.17,435.38Z"/><path class="cls-1" d="M233.88,438.82a10.19,10.19,0,0,1-7.7-3.33,11.64,11.64,0,0,1,0-16,10.13,10.13,0,0,1,7.63-3.35,9.93,9.93,0,0,1,7.58,3.4,11.53,11.53,0,0,1,3.13,8.08,10.33,10.33,0,0,1-3.15,7.74A9.52,9.52,0,0,1,233.88,438.82Zm-4.32-16a6.94,6.94,0,0,0-1.62,4.68,7.29,7.29,0,0,0,1.62,4.77,6.21,6.21,0,0,0,8.46,0,6.94,6.94,0,0,0,1.76-4.77A6.62,6.62,0,0,0,238,422.8a6.09,6.09,0,0,0-8.46,0Z"/><path class="cls-1" d="M270.6,429.33a8.93,8.93,0,0,1-2.81,6.59,9.17,9.17,0,0,1-6.66,2.77,9.41,9.41,0,0,1-9.38-9.36V418.57a2.32,2.32,0,0,1,.7-1.67,2.34,2.34,0,0,1,3.38,0,2.32,2.32,0,0,1,.7,1.67v10.75a4.53,4.53,0,0,0,4.59,4.59,4.59,4.59,0,0,0,3.31-1.33,4.52,4.52,0,0,0,1.42-3.26V418.57a2.36,2.36,0,0,1,.68-1.67,2.17,2.17,0,0,1,1.64-.72,2.39,2.39,0,0,1,1.71.72,2.25,2.25,0,0,1,.74,1.67Z"/><path class="cls-1" d="M280.09,409.66a2.46,2.46,0,0,1,2.48-2.48,2.47,2.47,0,0,1,1.78.72,2.35,2.35,0,0,1,.74,1.76v26.55a2.35,2.35,0,0,1-.74,1.75,2.46,2.46,0,0,1-1.78.72,2.46,2.46,0,0,1-2.48-2.47Z"/><path class="cls-1" d="M311.36,436.26a2.34,2.34,0,0,1-.72,1.71,2.29,2.29,0,0,1-1.67.72,2.36,2.36,0,0,1-1.6-.56,2.48,2.48,0,0,1-.83-1.37,10.65,10.65,0,0,1-6.12,1.93,10.36,10.36,0,0,1-7.74-3.31,11.44,11.44,0,0,1,0-15.86,10.62,10.62,0,0,1,13.77-1.44v-8.46a2.34,2.34,0,0,1,.72-1.71,2.44,2.44,0,0,1,3.47,0,2.34,2.34,0,0,1,.72,1.71Zm-10.94-2.48a5.67,5.67,0,0,0,4.25-1.87,6.24,6.24,0,0,0,1.78-4.46,6.36,6.36,0,0,0-1.75-4.48,5.78,5.78,0,0,0-8.55,0,6.36,6.36,0,0,0-1.75,4.48,6.24,6.24,0,0,0,1.78,4.46A5.67,5.67,0,0,0,300.43,433.78Z"/><path class="cls-1" d="M339,418.89a7.29,7.29,0,0,1,2.83-2,8.38,8.38,0,0,1,3.29-.72,3.12,3.12,0,0,1,2.18.7,2.2,2.2,0,0,1,.7,1.64,2.35,2.35,0,0,1-.7,1.69,2.27,2.27,0,0,1-1.69.72q-4.19,0-6.62,6.79v8.55a2.26,2.26,0,0,1-.72,1.69,2.4,2.4,0,0,1-1.73.7,2.32,2.32,0,0,1-1.71-.7,2.3,2.3,0,0,1-.7-1.69V418.57a2.22,2.22,0,0,1,.7-1.67,2.37,2.37,0,0,1,1.71-.68,2.45,2.45,0,0,1,1.73.68,2.19,2.19,0,0,1,.72,1.67Z"/><path class="cls-1" d="M354.63,435.4a11.8,11.8,0,0,1,0-15.91,10,10,0,0,1,7.63-3.31,10.15,10.15,0,0,1,6,2,2.81,2.81,0,0,1,.85-1.42,2.25,2.25,0,0,1,1.55-.56,2.19,2.19,0,0,1,1.62.72,2.38,2.38,0,0,1,.7,1.71V436.3a2.3,2.3,0,0,1-.7,1.69,2.22,2.22,0,0,1-1.62.7,2.3,2.3,0,0,1-1.55-.54,2.68,2.68,0,0,1-.85-1.39,10.17,10.17,0,0,1-6,1.93A10,10,0,0,1,354.63,435.4Zm1.73-7.94A6.62,6.62,0,0,0,358,432a5.4,5.4,0,0,0,4.23,1.85,5.54,5.54,0,0,0,4.28-1.85,6.49,6.49,0,0,0,1.69-4.55,6.6,6.6,0,0,0-1.71-4.59,5.5,5.5,0,0,0-4.25-1.89,5.4,5.4,0,0,0-4.21,1.87A6.65,6.65,0,0,0,356.36,427.46Z"/><path class="cls-1" d="M386.69,409.62v.94a2.43,2.43,0,0,1-.7,1.75,2.29,2.29,0,0,1-1.71.72,2.36,2.36,0,0,1-1.73-.72,2.38,2.38,0,0,1-.72-1.75v-.94a2.33,2.33,0,0,1,.72-1.71,2.36,2.36,0,0,1,1.73-.72,2.33,2.33,0,0,1,1.71.7A2.35,2.35,0,0,1,386.69,409.62Zm-4.16,7.31a2.5,2.5,0,0,1,3.46,0,2.41,2.41,0,0,1,.7,1.78v17.55A2.35,2.35,0,0,1,386,438a2.32,2.32,0,0,1-1.71.7,2.36,2.36,0,0,1-1.73-.72,2.33,2.33,0,0,1-.72-1.71V418.71A2.41,2.41,0,0,1,382.53,416.93Z"/><path class="cls-1" d="M399.29,436.3a2.2,2.2,0,0,1-.77,1.69,2.5,2.5,0,0,1-1.73.7,2.27,2.27,0,0,1-1.67-.7,2.3,2.3,0,0,1-.7-1.69V418.57a2.41,2.41,0,0,1,4.59-1,8.76,8.76,0,0,1,4.77-1.4,9.41,9.41,0,0,1,9.41,9.36V436.3a2.34,2.34,0,0,1-.68,1.69,2.2,2.2,0,0,1-1.64.7,2.34,2.34,0,0,1-1.69-.7,2.26,2.26,0,0,1-.72-1.69V425.55a4.31,4.31,0,0,0-1.37-3.22,4.56,4.56,0,0,0-3.29-1.33,4.33,4.33,0,0,0-3.22,1.33,4.42,4.42,0,0,0-1.31,3.22Z"/><path class="cls-1" d="M436.21,435.4a11.8,11.8,0,0,1,0-15.91,10,10,0,0,1,7.63-3.31,10.15,10.15,0,0,1,6,2,2.81,2.81,0,0,1,.85-1.42,2.25,2.25,0,0,1,1.55-.56,2.19,2.19,0,0,1,1.62.72,2.38,2.38,0,0,1,.7,1.71V436.3a2.3,2.3,0,0,1-.7,1.69,2.22,2.22,0,0,1-1.62.7,2.3,2.3,0,0,1-1.55-.54,2.68,2.68,0,0,1-.85-1.39,10.17,10.17,0,0,1-6,1.93A10,10,0,0,1,436.21,435.4Zm1.73-7.94a6.62,6.62,0,0,0,1.64,4.57,5.4,5.4,0,0,0,4.23,1.85,5.54,5.54,0,0,0,4.28-1.85,6.49,6.49,0,0,0,1.69-4.55,6.6,6.6,0,0,0-1.71-4.59,5.5,5.5,0,0,0-4.25-1.89,5.4,5.4,0,0,0-4.21,1.87A6.65,6.65,0,0,0,437.95,427.46Z"/><path class="cls-1" d="M468.23,436.3a2.2,2.2,0,0,1-.77,1.69,2.5,2.5,0,0,1-1.73.7,2.27,2.27,0,0,1-1.67-.7,2.3,2.3,0,0,1-.7-1.69V418.57a2.41,2.41,0,0,1,4.59-1,8.76,8.76,0,0,1,4.77-1.4,9.41,9.41,0,0,1,9.41,9.36V436.3a2.34,2.34,0,0,1-.68,1.69,2.2,2.2,0,0,1-1.64.7,2.34,2.34,0,0,1-1.69-.7,2.26,2.26,0,0,1-.72-1.69V425.55a4.31,4.31,0,0,0-1.37-3.22,4.56,4.56,0,0,0-3.29-1.33,4.33,4.33,0,0,0-3.22,1.33,4.42,4.42,0,0,0-1.31,3.22Z"/><path class="cls-1" d="M503.83,416.86a2.26,2.26,0,0,1,1.67-.68,2.38,2.38,0,0,1,1.71.7,2.27,2.27,0,0,1,.72,1.69v17a10.68,10.68,0,0,1-10.75,10.75,10.26,10.26,0,0,1-4.64-1.12,2.16,2.16,0,0,1-1.26-1.33,2.52,2.52,0,0,1,.09-1.87,2.39,2.39,0,0,1,1.42-1.12,2.63,2.63,0,0,1,2,.23,5.83,5.83,0,0,0,2.7.52,5.42,5.42,0,0,0,3.17-1.17,5.59,5.59,0,0,0,2.09-2.9,8.46,8.46,0,0,1-4.27,1.08,9,9,0,0,1-6.64-2.79,9.13,9.13,0,0,1-2.77-6.66V418.57a2.38,2.38,0,0,1,2.39-2.39,2.26,2.26,0,0,1,1.67.68,2.32,2.32,0,0,1,.67,1.71v10.62a4.36,4.36,0,0,0,1.37,3.26,4.58,4.58,0,0,0,3.31,1.33,4.51,4.51,0,0,0,3.28-1.33,4.39,4.39,0,0,0,1.35-3.26V418.57A2.32,2.32,0,0,1,503.83,416.86Z"/><path class="cls-1" d="M525,416.19a2.47,2.47,0,0,1,1.78.72,2.33,2.33,0,0,1,.74,1.73,2.4,2.4,0,0,1-.74,1.76,2.43,2.43,0,0,1-1.78.74H523.9v12.55a2.35,2.35,0,0,1,1.75.74,2.46,2.46,0,0,1,.72,1.78,2.46,2.46,0,0,1-2.48,2.47,5,5,0,0,1-5-5V421.14h-1.3a2.48,2.48,0,1,1,0-5h1.3v-6.52a2.35,2.35,0,0,1,.74-1.76,2.46,2.46,0,0,1,1.78-.72,2.46,2.46,0,0,1,2.48,2.48v6.52Z"/><path class="cls-1" d="M539.67,438a2.5,2.5,0,0,1-3.51,0,2.35,2.35,0,0,1-.74-1.75V409.66a2.46,2.46,0,0,1,2.48-2.48,2.47,2.47,0,0,1,1.78.72,2.35,2.35,0,0,1,.74,1.76v7.83a10.3,10.3,0,0,1,4.81-1.31,9.41,9.41,0,0,1,6.93,2.9,9.52,9.52,0,0,1,2.88,7v10.17a2.48,2.48,0,1,1-5,0V426a4.63,4.63,0,0,0-1.42-3.4,4.85,4.85,0,0,0-3.44-1.46,4.72,4.72,0,0,0-3.37,1.46,4.83,4.83,0,0,0-1.44,3.4v10.17A2.35,2.35,0,0,1,539.67,438Z"/><path class="cls-1" d="M567.9,409.62v.94a2.43,2.43,0,0,1-.7,1.75,2.29,2.29,0,0,1-1.71.72,2.36,2.36,0,0,1-1.73-.72,2.38,2.38,0,0,1-.72-1.75v-.94a2.33,2.33,0,0,1,.72-1.71,2.36,2.36,0,0,1,1.73-.72,2.33,2.33,0,0,1,1.71.7A2.35,2.35,0,0,1,567.9,409.62Zm-4.16,7.31a2.5,2.5,0,0,1,3.46,0,2.41,2.41,0,0,1,.7,1.78v17.55a2.35,2.35,0,0,1-.7,1.73,2.32,2.32,0,0,1-1.71.7,2.36,2.36,0,0,1-1.73-.72,2.33,2.33,0,0,1-.72-1.71V418.71A2.41,2.41,0,0,1,563.74,416.93Z"/><path class="cls-1" d="M580.5,436.3a2.2,2.2,0,0,1-.77,1.69,2.5,2.5,0,0,1-1.73.7,2.27,2.27,0,0,1-1.67-.7,2.3,2.3,0,0,1-.7-1.69V418.57a2.41,2.41,0,0,1,4.59-1,8.76,8.76,0,0,1,4.77-1.4,9.41,9.41,0,0,1,9.41,9.36V436.3a2.34,2.34,0,0,1-.68,1.69,2.2,2.2,0,0,1-1.64.7,2.34,2.34,0,0,1-1.69-.7,2.26,2.26,0,0,1-.72-1.69V425.55a4.31,4.31,0,0,0-1.37-3.22A4.56,4.56,0,0,0,585,421a4.33,4.33,0,0,0-3.22,1.33,4.42,4.42,0,0,0-1.31,3.22Z"/><path class="cls-1" d="M604.89,435.45a10.9,10.9,0,0,1-3.15-7.9,11.29,11.29,0,0,1,3.15-8,10.47,10.47,0,0,1,13.68-1.46,2.34,2.34,0,0,1,.85-1.35,2.48,2.48,0,0,1,1.6-.54,2.22,2.22,0,0,1,1.62.7,2.3,2.3,0,0,1,.7,1.69v17.37a10.83,10.83,0,0,1-10.8,10.8,10.08,10.08,0,0,1-4.73-1.12,2.17,2.17,0,0,1-1.21-1.37,2.37,2.37,0,0,1,.13-1.87,2.32,2.32,0,0,1,1.37-1.21,2.52,2.52,0,0,1,1.87.09,6.17,6.17,0,0,0,2.95.63,5.29,5.29,0,0,0,3.42-1.37,6,6,0,0,0,2.09-3.44,10.14,10.14,0,0,1-5.9,1.8A10,10,0,0,1,604.89,435.45Zm1.71-7.87a6.54,6.54,0,0,0,1.71,4.54,5.5,5.5,0,0,0,4.25,1.89,5.56,5.56,0,0,0,4.25-1.84,6.5,6.5,0,0,0,1.71-4.59,6.69,6.69,0,0,0-1.73-4.66,5.57,5.57,0,0,0-8.44,0A6.69,6.69,0,0,0,606.6,427.57Z"/><path class="cls-1" d="M645.89,410a8.74,8.74,0,0,1,2.79,6.39,9.48,9.48,0,0,1-7.29,9.47v2.93a2.14,2.14,0,0,1-.63,1.57,2.11,2.11,0,0,1-1.55.63,2.18,2.18,0,0,1-1.57-.63,2.1,2.1,0,0,1-.65-1.57v-4.68s0,0,0,0,0,0,0,0a.19.19,0,0,1,0-.09,2.14,2.14,0,0,1,.65-1.53,2.08,2.08,0,0,1,1.55-.67,5,5,0,0,0,3.62-1.49,4.84,4.84,0,0,0,1.51-3.58,4.77,4.77,0,0,0-1.51-3.55,5,5,0,0,0-3.62-1.46,4.69,4.69,0,0,0-4.32,2.48,2.25,2.25,0,0,1-3.06.81,2.24,2.24,0,0,1-1-1.35,2.17,2.17,0,0,1,.23-1.67A9.46,9.46,0,0,1,645.89,410Zm-8.26,24.17a2.15,2.15,0,0,1,1.57-.65,2.08,2.08,0,0,1,1.55.65,2.16,2.16,0,0,1,.63,1.55v.81a2.14,2.14,0,0,1-.63,1.58,2.11,2.11,0,0,1-1.55.63,2.18,2.18,0,0,1-1.57-.63,2.1,2.1,0,0,1-.65-1.58v-.81A2.12,2.12,0,0,1,637.63,434.12Z"/></g></g></svg>