<svg xmlns="http://www.w3.org/2000/svg" viewBox="0 0 430.47 125.06"><defs><style>.cls-1{fill:#fff;}.cls-2{fill:#f2f2f2;}</style></defs><title>View_in_VR</title><g id="Layer_2" data-name="Layer 2"><g id="WebVR_Button" data-name="WebVR Button"><g id="_Group_" data-name="&lt;Group&gt;"><path class="cls-1" d="M361.31,4.09c36.09,0,65.44,26.3,65.44,58.63s-29.36,58.63-65.44,58.63H63.73V4.09H361.31m0-3.71H60V125.06H361.31c38.2,0,69.16-27.91,69.16-62.34S399.51.38,361.31.38Z"/></g><circle id="_Path_" data-name="&lt;Path&gt;" class="cls-1" cx="62.53" cy="62.53" r="62.53"/><path class="cls-2" d="M154.09,47.55l8.77,25.76,8.82-25.76h4L164.86,78.18h-4L150.05,47.55Z"/><path class="cls-2" d="M183.66,49.4a2.47,2.47,0,0,1-1.83-.66,2.67,2.67,0,0,1,0-3.51,2.47,2.47,0,0,1,1.83-.66,2.64,2.64,0,0,1,1.88.66,2.53,2.53,0,0,1,0,3.51A2.64,2.64,0,0,1,183.66,49.4Zm-1.9,5.45h3.85V78.18h-3.85Z"/><path class="cls-2" d="M204.11,75.6q4.82,0,5.5-4.24h3.95a8,8,0,0,1-3.09,5.43,10.27,10.27,0,0,1-6.36,1.92,9.63,9.63,0,0,1-7.6-3.34,13,13,0,0,1-2.92-8.89,12.85,12.85,0,0,1,2.95-8.86,10,10,0,0,1,7.84-3.31,8.07,8.07,0,0,1,7.31,3.8,13.45,13.45,0,0,1,1.68,9.25H197.44a9.52,9.52,0,0,0,1.75,5.92A5.81,5.81,0,0,0,204.11,75.6ZM206.93,58a6.54,6.54,0,0,0-7.43,1.44,8.85,8.85,0,0,0-2,5h12.42Q209.91,59.58,206.93,58Z"/><path class="cls-2" d="M221.11,54.9l5.65,18.56L232.31,56h3.21L241,73.65l5.7-18.75h3.8l-7.6,23.28h-3.75l-5.36-16.32-5.26,16.32h-3.7L217.11,54.9Z"/><path class="cls-2" d="M270.2,49.4a2.47,2.47,0,0,1-1.83-.66,2.67,2.67,0,0,1,0-3.51,2.47,2.47,0,0,1,1.83-.66,2.64,2.64,0,0,1,1.88.66,2.53,2.53,0,0,1,0,3.51A2.64,2.64,0,0,1,270.2,49.4Zm-1.9,5.45h3.85V78.18H268.3Z"/><path class="cls-2" d="M286.32,59.39A8.76,8.76,0,0,1,300.61,57a11.16,11.16,0,0,1,2.31,7.45V78.18h-3.8V64.5a7.21,7.21,0,0,0-1.58-5.06,5.84,5.84,0,0,0-4.5-1.7,5.65,5.65,0,0,0-4.72,2.39,11.22,11.22,0,0,0-1.9,6.62V78.18h-3.85V54.9h3.31Z"/><path class="cls-2" d="M323.58,47.55l8.77,25.76,8.82-25.76h4L334.34,78.18h-4L319.54,47.55Z"/><path class="cls-2" d="M372.33,56.32a9.05,9.05,0,0,1-2,6.14,9.78,9.78,0,0,1-6,3l8.77,12.71h-5L360.2,65.67h-5.36V78.18H351V47.55h10.67q5.16,0,7.91,2.48A8.1,8.1,0,0,1,372.33,56.32Zm-11,6.67a7.36,7.36,0,0,0,5.24-1.68,5.82,5.82,0,0,0,1.78-4.43,5.74,5.74,0,0,0-1.73-4.38,7,7,0,0,0-5-1.63h-6.82V63Z"/><path id="_Compound_Path_" data-name="&lt;Compound Path&gt;" d="M86.87,86.28H74.38a9,9,0,0,1-7.94-4.75l-3.52-6.58a2.3,2.3,0,0,0-2.05-1.23h0A2.29,2.29,0,0,0,58.79,75l-3.52,6.58a9,9,0,0,1-7.94,4.75H34.84a9,9,0,0,1-9-9V50.42a9,9,0,0,1,9-9h52a9,9,0,0,1,9,9V77.27a9,9,0,0,1-9,9Z"/><circle id="_Path_2" data-name="&lt;Path&gt;" class="cls-1" cx="44.91" cy="63.85" r="7.08"/><circle id="_Path_3" data-name="&lt;Path&gt;" class="cls-1" cx="76.8" cy="63.85" r="7.08"/></g></g></svg>