<svg xmlns="http://www.w3.org/2000/svg" viewBox="0 0 1677.9 821.9"><defs><style>.cls-1{fill:#fff;}</style></defs><title>webVR_experiment</title><g id="Layer_2" data-name="Layer 2"><g id="Layer_1-2" data-name="Layer 1"><g id="Layer_1-3" data-name="Layer 1"><path class="cls-1" d="M2.1,241.8c-.9-3.3-2.1-9.1-2.1-11.5,0-8.5,5.2-13.7,14.3-13.7,6.4,0,11.9,3.3,14,11.2L66,373.7l40.4-145.3c1.8-6.4,6.1-9.7,12.8-9.7,6.4,0,10.6,3.3,12.5,9.7l40.4,145.9,37.7-146.5c2.1-7.9,7.6-11.2,14-11.2,9.1,0,14.3,5.2,14.3,13.7,0,2.4-1.2,8.2-2.1,11.5L186.6,430.5c-1.8,7-6.7,10.3-13.7,10.3s-12.5-3.3-14.3-10.3L119.1,284.3,79.3,430.5c-1.8,7-7.3,10.3-14.3,10.3s-11.5-3.3-13.7-10.3Z"/><path class="cls-1" d="M282.6,367.9c4.9,26.1,24.9,45,52.3,45,14.3,0,29.5-2.7,43.2-12.5,3.6-2.4,7.6-4.3,11.9-4.3,9.4,0,13.4,6.7,13.4,14,0,5.5-3,10-7.3,13.7-15.5,12.8-42.2,17.6-61.1,17.6-53.5,0-82.7-38.3-82.7-86.9,0-45.9,28.9-86,80.2-86,46.5,0,79,33.4,79,84.8,0,7.9-4.9,14.6-14.3,14.6H282.6Zm-.3-26.5h98.5c-3.3-27-21-44.4-48.3-44.4C304.8,297.1,286.9,315.6,282.3,341.4Z"/><path class="cls-1" d="M476.2,418.9v6.4c0,9.7-7.3,14.9-14.6,14.9S447,435,447,425.3V231.4c0-10,7.6-14.9,14.6-14.9s14.6,4.9,14.6,14.9V291c11.5-14,28.3-22.5,50.4-22.5,52.3,0,80.2,40.1,80.2,86.6s-29.2,86.3-80.2,86.3C504.5,441.4,487.8,432.9,476.2,418.9Zm101.5-63.8c0-31-19.1-58-51.1-58-31.3,0-49.5,25.8-50.4,55.9v4.6c.9,29.8,19.1,55.3,50.4,55.3C558.6,412.8,577.7,386.1,577.7,355.1Z"/><path class="cls-1" d="M625.5,240.5c-1.5-3.6-2.7-7.9-2.7-10.3,0-8.2,5.8-13.7,14.9-13.7,6.7,0,11.2,3,13.4,8.8l58,161.1,57.7-161.1c2.1-5.8,6.7-8.8,13.4-8.8,9.1,0,14.9,5.5,14.9,13.7,0,2.4-1.2,6.7-2.7,10.3L723,430.5c-2.4,6.7-7,10.3-14,10.3-7.3,0-11.5-3.6-14.3-10.3Z"/><path class="cls-1" d="M889,345.4H851.6v79.9c0,9.7-7.3,14.9-14.6,14.9s-14.6-5.2-14.6-14.9V232.6c0-10,7.6-14.9,14.6-14.9h76.6c35.3,0,64.1,23.7,64.1,62.6,0,35.3-23.4,59.6-53.5,64.4L975,414c2.4,3.3,4.6,7.9,4.6,12.2,0,8.2-6.7,14-14.9,14a16.31,16.31,0,0,1-12.8-6.4Zm-37.4-99.1v70.5h62c18.2,0,34.6-13.7,34.6-36.5,0-22.5-16.4-34-34.6-34Z"/><path class="cls-1" d="M79.7,1A8.18,8.18,0,0,1,88,9.2,7.93,7.93,0,0,1,79.7,17H52.2v97.9a8,8,0,1,1-16,0V17H8.7A8.18,8.18,0,0,1,.4,8.8,7.93,7.93,0,0,1,8.7,1Z"/><path class="cls-1" d="M102,8.5a8,8,0,1,1,16,0V41.4c5-7.7,15.2-12.5,26.4-12.5,24.5,0,38.2,13.7,38.2,40.4V115a8.1,8.1,0,1,1-16.2,0V69.3c0-16-10.2-24.7-24.4-24.7-12.8,0-24,10.7-24,26.9V115a8,8,0,1,1-16,0Z"/><path class="cls-1" d="M205.3,10c0-5.8,4.5-10,10.3-10s10.3,4.2,10.3,10a10.3,10.3,0,0,1-20.6,0Zm2.3,28.5c0-5.7,4.2-8.3,8-8.3a7.89,7.89,0,0,1,8,8.3v76.4a8,8,0,1,1-16,0Z"/><path class="cls-1" d="M299,69.9c18,3.3,28.2,11.5,28.2,27.4,0,16.5-13.7,26.5-35.7,26.5-16.8,0-36.9-9.8-36.9-18.7,0-4,2.3-7.5,6.8-7.5,3.5,0,6.3,1.7,9,3.7,5.7,4.5,12.5,7.7,23.2,7.7,10.3,0,17.2-4.2,17.2-11.7,0-8-6.8-10.7-16.8-12.5l-9-1.7c-15.5-2.8-28-10.7-28-27.9,0-15,13.8-26.4,33-26.4,15.3,0,35.7,7.8,35.7,17.3,0,4-2.3,7.7-6.8,7.7-5.7,0-14.7-10.2-30.2-10.2-8.5,0-15.3,4.2-15.3,11.5,0,7.5,7.3,11.3,16.5,13Z"/><path class="cls-1" d="M395.9,10c0-5.8,4.5-10,10.3-10s10.3,4.2,10.3,10a10.3,10.3,0,0,1-20.6,0Zm2.4,28.5c0-5.7,4.2-8.3,8-8.3a7.89,7.89,0,0,1,8,8.3v76.4a8,8,0,1,1-16,0Z"/><path class="cls-1" d="M476.7,69.9c18,3.3,28.2,11.5,28.2,27.4,0,16.5-13.7,26.5-35.7,26.5-16.8,0-36.9-9.8-36.9-18.7,0-4,2.3-7.5,6.8-7.5,3.5,0,6.3,1.7,9,3.7,5.7,4.5,12.5,7.7,23.2,7.7,10.3,0,17.2-4.2,17.2-11.7,0-8-6.8-10.7-16.8-12.5l-9-1.7c-15.5-2.8-28-10.7-28-27.9,0-15,13.8-26.4,33-26.4,15.3,0,35.7,7.8,35.7,17.3,0,4-2.3,7.7-6.8,7.7-5.7,0-14.7-10.2-30.2-10.2-8.5,0-15.3,4.2-15.3,11.5,0,7.5,7.3,11.3,16.5,13Z"/><path class="cls-1" d="M661.6,114.9a8,8,0,1,1-16,0v-3.5c-6.3,7.7-15.5,12.3-27.7,12.3-28.7,0-44-22-44-47.5s15.3-47.4,44-47.4c12,0,21.2,4.8,27.7,12.5V38.5c0-5.7,4-8.3,8-8.3a7.89,7.89,0,0,1,8,8.3ZM617.9,44.5c-17.5,0-28,14.7-28,31.7,0,17.2,10.5,31.9,28,31.9,17,0,27.7-14.3,27.7-31.9C645.6,59.2,635.4,44.5,617.9,44.5Z"/><path class="cls-1" d="M.3,742V551.7c0-10,7.6-14.9,14.6-14.9H141.6a14.9,14.9,0,0,1,14.9,14.9A14.42,14.42,0,0,1,141.6,566H29.4v62.6h78.7c9.7,0,14.9,7.9,14.9,14.9s-5.2,14.3-14.9,14.3H29.4v69.9H141.5a14.9,14.9,0,0,1,14.9,14.9,14.42,14.42,0,0,1-14.9,14.3H14.8C7.5,756.9.3,751.7.3,742Z"/><path class="cls-1" d="M240.6,673l-47.7-56.8c-2.4-3-4.6-8.2-4.6-11.2a15,15,0,0,1,15.2-14.9c4.3,0,8.2,1.5,11.9,5.8l45.3,53.8L306,595.9c3.6-4.3,7.6-5.8,11.9-5.8A15,15,0,0,1,333.1,605c0,3-2.1,8.2-4.6,11.2l-48,56.8,51.1,60.2a20,20,0,0,1,4.6,11.5,15.34,15.34,0,0,1-27.1,9.1l-48.3-57.1-48.3,57.1c-3.6,4.3-7.6,5.5-12.2,5.5a14.68,14.68,0,0,1-14.9-14.6,19.33,19.33,0,0,1,4.6-11.5Z"/><path class="cls-1" d="M394.3,738v69c0,10-7.3,14.9-14.6,14.9S365.1,817,365.1,807V605.2c0-10.3,7.6-15.2,14.6-15.2s14.6,4.9,14.6,15.2v4.9c11.5-14,28.3-22.5,50.4-22.5,52.3,0,80.2,40.1,80.2,86.6s-29.1,86.3-80.1,86.3C422.6,760.5,405.9,752,394.3,738Zm101.5-63.8c0-31-19.1-58-51.1-58-31.3,0-49.5,25.8-50.4,55.9v4.6c.9,29.8,19.1,55.3,50.4,55.3C476.7,732,495.8,705.2,495.8,674.2Z"/><path class="cls-1" d="M584.8,687c4.9,26.1,24.9,45,52.3,45,14.3,0,29.5-2.7,43.2-12.5,3.6-2.4,7.6-4.3,11.9-4.3,9.4,0,13.4,6.7,13.4,14,0,5.5-3,10-7.3,13.7-15.5,12.8-42.2,17.6-61.1,17.6-53.5,0-82.7-38.3-82.7-86.9,0-45.9,28.9-86,80.2-86,46.5,0,79,33.4,79,84.8,0,7.9-4.9,14.6-14.3,14.6H584.8Zm-.3-26.5H683c-3.3-27-21-44.4-48.3-44.4C607,616.2,589.1,634.7,584.5,660.5Z"/><path class="cls-1" d="M753.2,605.2c0-10.3,7.6-15.2,14.6-15.2s14.6,4.9,14.6,15.2v5.2c7.9-14,21.9-22.8,38.3-22.8,12.2,0,21.9,3.6,21.9,15.5,0,9.7-5.5,15.5-12.8,15.5-3.6,0-7.9-1.8-12.2-1.8-16.7,0-35.3,18.2-35.3,53.5v74.1c0,9.7-7.3,14.9-14.6,14.9s-14.6-5.2-14.6-14.9V605.2Z"/><path class="cls-1" d="M877.2,553.3c0-10.6,8.2-18.2,18.8-18.2s18.8,7.6,18.8,18.2-8.2,18.5-18.8,18.5S877.2,563.9,877.2,553.3Zm4.3,51.9c0-10.3,7.6-15.2,14.6-15.2s14.6,4.9,14.6,15.2V744.4c0,9.7-7.3,14.9-14.6,14.9s-14.6-5.2-14.6-14.9Z"/><path class="cls-1" d="M1141.6,659.9c0-26.4-9.4-43.2-31.9-43.2-21.9,0-32.5,15.8-32.5,46.5v81.1c0,10-7.6,14.9-14.6,14.9s-14.6-4.9-14.6-14.9V659.8c0-26.4-9.4-43.2-31.9-43.2-21.3,0-32.5,15.2-32.5,44.4v83.3c0,9.7-7.3,14.9-14.6,14.9s-14.6-5.2-14.6-14.9V605.2c0-10.3,7.6-15.2,14.6-15.2s14.6,4.9,14.6,15.2v.6c7.6-10.9,20.4-18.2,38.3-18.2,21,0,36.2,7.6,45.3,24,8.8-14,24.3-24,46.8-24,36.5,0,56.8,22.2,56.8,72.3v84.5c0,10-7.6,14.9-14.6,14.9s-14.6-4.9-14.6-14.9V659.9Z"/><path class="cls-1" d="M1230.8,687c4.9,26.1,24.9,45,52.3,45,14.3,0,29.5-2.7,43.2-12.5,3.6-2.4,7.6-4.3,11.9-4.3,9.4,0,13.4,6.7,13.4,14,0,5.5-3,10-7.3,13.7-15.5,12.8-42.2,17.6-61.1,17.6-53.5,0-82.7-38.3-82.7-86.9,0-45.9,28.9-86,80.2-86,46.5,0,79,33.4,79,84.8,0,7.9-4.9,14.6-14.3,14.6H1230.8Zm-.3-26.5H1329c-3.3-27-21-44.4-48.3-44.4C1253,616.2,1235.1,634.7,1230.5,660.5Z"/><path class="cls-1" d="M1394.2,605.2c0-10.3,7.6-15.2,14.6-15.2s14.6,4.9,14.6,15.2v5.2c9.1-14,27.7-22.8,48-22.8,44.7,0,69.6,24.9,69.6,73.5v83.3c0,10-7.6,14.9-14.6,14.9-7.3,0-14.9-4.9-14.9-14.9V661.1c0-29.2-18.5-45-44.4-45-23.4,0-43.8,19.4-43.8,48.9v79.3c0,9.7-7.3,14.9-14.6,14.9s-14.6-5.2-14.6-14.9V605.2Z"/><path class="cls-1" d="M1598.9,592.2V553c0-9.7,7-14.9,14.6-14.9,7.3,0,14.6,5.2,14.6,14.9v39.2h31.6c9.7,0,14.9,7,14.9,14.3,0,7-5.2,14.9-14.9,14.9h-31.6v88.7c0,12.5,5.2,21.6,17.9,21.6,4.3,0,7.9-1.5,11.5-2.4a18.65,18.65,0,0,1,6.7-1.2c9.1,0,13.7,5.5,13.7,14,0,5.8-3,9.7-7,12.5-6.7,4.3-17.3,5.5-27,5.5-32.2,0-45-18.2-45-49.5v-89h-13.7a14.9,14.9,0,0,1-14.9-14.9c0-7.3,5.5-14.3,14.9-14.3h13.7Z"/></g></g></g></svg>